<svg width="64" height="64" viewBox="0 0 64 64" fill="none" xmlns="http://www.w3.org/2000/svg">
<g filter="url(#filter0_d_1405_18209)">
<rect x="4" y="2" width="56" height="56" rx="28" fill="url(#paint0_linear_1405_18209)"/>
<g clip-path="url(#clip0_1405_18209)">
<g filter="url(#filter1_d_1405_18209)">
<path d="M32.4659 38.8713C32.1744 38.7177 31.826 38.7175 31.5344 38.8709L24.5358 42.5504C23.8022 42.9361 22.9447 42.3132 23.0848 41.4962L24.4218 33.7025C24.4775 33.3779 24.3697 33.0466 24.1337 32.8169L18.4646 27.2986C17.8704 26.7202 18.198 25.7113 19.0187 25.5924L26.8402 24.4588C27.1661 24.4116 27.4478 24.207 27.5935 23.9117L31.093 16.8209C31.4598 16.0777 32.5197 16.0777 32.8865 16.8209L36.386 23.9117C36.5317 24.207 36.8134 24.4116 37.1393 24.4588L44.9608 25.5924C45.7815 25.7113 46.1091 26.7202 45.5148 27.2986L39.8458 32.8169C39.6098 33.0466 39.502 33.3779 39.5577 33.7025L40.8942 41.4939C41.0345 42.3112 40.1761 42.9342 39.4424 42.5476L32.4659 38.8713Z" fill="white"/>
</g>
</g>
</g>
<defs>
<filter id="filter0_d_1405_18209" x="0" y="0" width="64" height="64" filterUnits="userSpaceOnUse" color-interpolation-filters="sRGB">
<feFlood flood-opacity="0" result="BackgroundImageFix"/>
<feColorMatrix in="SourceAlpha" type="matrix" values="0 0 0 0 0 0 0 0 0 0 0 0 0 0 0 0 0 0 127 0" result="hardAlpha"/>
<feOffset dy="2"/>
<feGaussianBlur stdDeviation="2"/>
<feComposite in2="hardAlpha" operator="out"/>
<feColorMatrix type="matrix" values="0 0 0 0 0.972549 0 0 0 0 0.866667 0 0 0 0 0.384314 0 0 0 0.32 0"/>
<feBlend mode="normal" in2="BackgroundImageFix" result="effect1_dropShadow_1405_18209"/>
<feBlend mode="normal" in="SourceGraphic" in2="effect1_dropShadow_1405_18209" result="shape"/>
</filter>
<filter id="filter1_d_1405_18209" x="14.1611" y="14.2637" width="35.6572" height="34.4043" filterUnits="userSpaceOnUse" color-interpolation-filters="sRGB">
<feFlood flood-opacity="0" result="BackgroundImageFix"/>
<feColorMatrix in="SourceAlpha" type="matrix" values="0 0 0 0 0 0 0 0 0 0 0 0 0 0 0 0 0 0 127 0" result="hardAlpha"/>
<feOffset dy="2"/>
<feGaussianBlur stdDeviation="2"/>
<feComposite in2="hardAlpha" operator="out"/>
<feColorMatrix type="matrix" values="0 0 0 0 0 0 0 0 0 0 0 0 0 0 0 0 0 0 0.12 0"/>
<feBlend mode="normal" in2="BackgroundImageFix" result="effect1_dropShadow_1405_18209"/>
<feBlend mode="normal" in="SourceGraphic" in2="effect1_dropShadow_1405_18209" result="shape"/>
</filter>
<linearGradient id="paint0_linear_1405_18209" x1="32" y1="2" x2="32" y2="58" gradientUnits="userSpaceOnUse">
<stop stop-color="#F8DD62"/>
<stop offset="1" stop-color="#F5AA50"/>
</linearGradient>
<clipPath id="clip0_1405_18209">
<rect width="36" height="36" fill="white" transform="translate(14 12)"/>
</clipPath>
</defs>
</svg>
