<svg width="375" height="507" viewBox="0 0 375 507" fill="none" xmlns="http://www.w3.org/2000/svg">
<path fill-rule="evenodd" clip-rule="evenodd" d="M-68 489L-46.6667 471.938C-25.3333 454.875 17.3334 420.75 60 420.75C102.667 420.75 145.333 454.875 188 452.438C230.667 450 273.333 411 316 403.688C358.667 396.375 401.333 420.75 422.667 432.938L444 445.125V372H422.667C401.333 372 358.667 372 316 372C273.333 372 230.667 372 188 372C145.333 372 102.667 372 60 372C17.3334 372 -25.3333 372 -46.6667 372H-68V489Z" fill="#F52E75" fill-opacity="0.64"/>
<path d="M375 -1.52588e-05H7.62939e-06V382H-29V416.347L-8.12499 423.979C12.75 431.612 54.5 446.877 96.25 448.785C118.731 449.813 141.212 446.968 163.692 444.122C182.962 441.684 202.231 439.245 221.5 439.245C238.2 439.245 254.899 441.076 271.599 442.908C296.649 445.656 321.7 448.404 346.75 444.969C388.5 439.245 430.25 416.347 451.125 404.898L472 393.449V382H375V-1.52588e-05Z" fill="#FF3C76"/>
<path fill-rule="evenodd" clip-rule="evenodd" d="M-85.0068 120.541C-91.7734 81.0648 -122.884 43.6958 -104.662 8.03809C-83.9459 -32.5012 -38.5377 -53.0395 6.6161 -58.7541C57.9942 -65.2564 117.453 -64.3582 150.207 -24.2176C182.448 15.2943 166.847 71.9712 153.432 121.17C141.714 164.145 119.106 201.601 81.9432 226.133C38.7539 254.644 -17.2593 290.396 -61.0059 262.727C-103.735 235.702 -76.4632 170.384 -85.0068 120.541Z" fill="white" fill-opacity="0.06"/>
<path fill-rule="evenodd" clip-rule="evenodd" d="M278.252 394.881C269.781 365.34 242.919 339.449 253.826 310.725C266.225 278.069 299.135 258.596 333.094 250.45C371.734 241.182 417.157 236.88 445.505 264.748C473.409 292.179 466.264 336.714 460.159 375.362C454.826 409.121 440.725 439.584 414.439 461.412C383.89 486.779 344.168 518.744 308.483 501.311C273.627 484.283 288.949 432.179 278.252 394.881Z" fill="white" fill-opacity="0.06"/>
</svg>
