<svg width="36" height="36" viewBox="0 0 36 36" fill="none" xmlns="http://www.w3.org/2000/svg">
<g filter="url(#filter0_d_570_49937)">
<path fill-rule="evenodd" clip-rule="evenodd" d="M29.1213 11.1213C30.2929 9.94975 30.2929 8.05025 29.1213 6.87868C27.9497 5.70711 26.0503 5.70711 24.8787 6.87868L18 13.7574L11.1213 6.87868C9.94975 5.70711 8.05025 5.70711 6.87868 6.87868C5.70711 8.05025 5.70711 9.94975 6.87868 11.1213L13.7574 18L6.87868 24.8787C5.70711 26.0503 5.70711 27.9497 6.87868 29.1213C8.05025 30.2929 9.94975 30.2929 11.1213 29.1213L18 22.2426L24.8787 29.1213C26.0503 30.2929 27.9497 30.2929 29.1213 29.1213C30.2929 27.9497 30.2929 26.0503 29.1213 24.8787L22.2426 18L29.1213 11.1213Z" fill="#F24747"/>
<path d="M29.1213 6.87868L29.4749 6.52513V6.52513L29.1213 6.87868ZM29.1213 11.1213L29.4749 11.4749L29.1213 11.1213ZM24.8787 6.87868L24.5251 6.52513V6.52513L24.8787 6.87868ZM18 13.7574L17.6464 14.1109C17.8417 14.3062 18.1583 14.3062 18.3536 14.1109L18 13.7574ZM11.1213 6.87868L10.7678 7.23223L11.1213 6.87868ZM6.87868 6.87868L7.23223 7.23223L7.23223 7.23223L6.87868 6.87868ZM6.87868 11.1213L7.23223 10.7678L6.87868 11.1213ZM13.7574 18L14.1109 18.3536C14.3062 18.1583 14.3062 17.8417 14.1109 17.6464L13.7574 18ZM6.87868 24.8787L6.52513 24.5251H6.52513L6.87868 24.8787ZM6.87868 29.1213L6.52513 29.4749H6.52513L6.87868 29.1213ZM11.1213 29.1213L11.4749 29.4749L11.1213 29.1213ZM18 22.2426L18.3536 21.8891C18.1583 21.6938 17.8417 21.6938 17.6464 21.8891L18 22.2426ZM24.8787 29.1213L24.5251 29.4749L24.8787 29.1213ZM29.1213 29.1213L29.4749 29.4749L29.1213 29.1213ZM29.1213 24.8787L29.4749 24.5251L29.1213 24.8787ZM22.2426 18L21.8891 17.6464C21.6938 17.8417 21.6938 18.1583 21.8891 18.3536L22.2426 18ZM28.7678 7.23223C29.7441 8.20854 29.7441 9.79146 28.7678 10.7678L29.4749 11.4749C30.8417 10.108 30.8417 7.89196 29.4749 6.52513L28.7678 7.23223ZM25.2322 7.23223C26.2085 6.25592 27.7915 6.25592 28.7678 7.23223L29.4749 6.52513C28.108 5.15829 25.892 5.15829 24.5251 6.52513L25.2322 7.23223ZM18.3536 14.1109L25.2322 7.23223L24.5251 6.52513L17.6464 13.4038L18.3536 14.1109ZM10.7678 7.23223L17.6464 14.1109L18.3536 13.4038L11.4749 6.52513L10.7678 7.23223ZM7.23223 7.23223C8.20854 6.25592 9.79146 6.25592 10.7678 7.23223L11.4749 6.52513C10.108 5.15829 7.89196 5.15829 6.52513 6.52513L7.23223 7.23223ZM7.23223 10.7678C6.25592 9.79146 6.25592 8.20854 7.23223 7.23223L6.52513 6.52513C5.15829 7.89196 5.15829 10.108 6.52513 11.4749L7.23223 10.7678ZM14.1109 17.6464L7.23223 10.7678L6.52513 11.4749L13.4038 18.3536L14.1109 17.6464ZM7.23223 25.2322L14.1109 18.3536L13.4038 17.6464L6.52513 24.5251L7.23223 25.2322ZM7.23223 28.7678C6.25592 27.7915 6.25592 26.2085 7.23223 25.2322L6.52513 24.5251C5.15829 25.892 5.15829 28.108 6.52513 29.4749L7.23223 28.7678ZM10.7678 28.7678C9.79146 29.7441 8.20854 29.7441 7.23223 28.7678L6.52513 29.4749C7.89196 30.8417 10.108 30.8417 11.4749 29.4749L10.7678 28.7678ZM17.6464 21.8891L10.7678 28.7678L11.4749 29.4749L18.3536 22.5962L17.6464 21.8891ZM25.2322 28.7678L18.3536 21.8891L17.6464 22.5962L24.5251 29.4749L25.2322 28.7678ZM28.7678 28.7678C27.7915 29.7441 26.2085 29.7441 25.2322 28.7678L24.5251 29.4749C25.892 30.8417 28.108 30.8417 29.4749 29.4749L28.7678 28.7678ZM28.7678 25.2322C29.7441 26.2085 29.7441 27.7915 28.7678 28.7678L29.4749 29.4749C30.8417 28.108 30.8417 25.892 29.4749 24.5251L28.7678 25.2322ZM21.8891 18.3536L28.7678 25.2322L29.4749 24.5251L22.5962 17.6464L21.8891 18.3536ZM28.7678 10.7678L21.8891 17.6464L22.5962 18.3536L29.4749 11.4749L28.7678 10.7678Z" fill="#DB2D2D"/>
</g>
<defs>
<filter id="filter0_d_570_49937" x="-2.5" y="-1.5" width="41" height="41" filterUnits="userSpaceOnUse" color-interpolation-filters="sRGB">
<feFlood flood-opacity="0" result="BackgroundImageFix"/>
<feColorMatrix in="SourceAlpha" type="matrix" values="0 0 0 0 0 0 0 0 0 0 0 0 0 0 0 0 0 0 127 0" result="hardAlpha"/>
<feOffset dy="1"/>
<feGaussianBlur stdDeviation="4"/>
<feComposite in2="hardAlpha" operator="out"/>
<feColorMatrix type="matrix" values="0 0 0 0 0 0 0 0 0 0 0 0 0 0 0 0 0 0 0.36 0"/>
<feBlend mode="normal" in2="BackgroundImageFix" result="effect1_dropShadow_570_49937"/>
<feBlend mode="normal" in="SourceGraphic" in2="effect1_dropShadow_570_49937" result="shape"/>
</filter>
</defs>
</svg>
