<svg width="30" height="30" viewBox="0 0 30 30" fill="none" xmlns="http://www.w3.org/2000/svg">
<path d="M17 10C17.621 10.4657 18.125 11.0697 18.4721 11.7639C18.8193 12.4582 19 13.2238 19 14C19 14.7762 18.8193 15.5418 18.4721 16.2361C18.125 16.9303 17.621 17.5343 17 18" stroke="white" stroke-width="2" stroke-linecap="round" stroke-linejoin="round"/>
<path d="M19.7 7C20.744 7.84365 21.586 8.91013 22.1645 10.1213C22.7429 11.3325 23.0431 12.6578 23.0431 14C23.0431 15.3422 22.7429 16.6675 22.1645 17.8787C21.586 19.0899 20.744 20.1563 19.7 21" stroke="white" stroke-width="2" stroke-linecap="round" stroke-linejoin="round"/>
<path d="M8 17H6C5.73478 17 5.48043 16.8946 5.29289 16.7071C5.10536 16.5196 5 16.2652 5 16V12C5 11.7348 5.10536 11.4804 5.29289 11.2929C5.48043 11.1054 5.73478 11 6 11H8L11.5 6.5C11.5874 6.33023 11.7326 6.19733 11.9095 6.1253C12.0863 6.05327 12.2831 6.04686 12.4643 6.10725C12.6454 6.16763 12.799 6.29081 12.8972 6.45454C12.9955 6.61827 13.0319 6.81175 13 7V21C13.0319 21.1883 12.9955 21.3817 12.8972 21.5455C12.799 21.7092 12.6454 21.8324 12.4643 21.8928C12.2831 21.9531 12.0863 21.9467 11.9095 21.8747C11.7326 21.8027 11.5874 21.6698 11.5 21.5L8 17Z" stroke="white" stroke-width="2" stroke-linecap="round" stroke-linejoin="round"/>
<path d="M22.5 7.5L7.5 22.5" stroke="#FF3C76" stroke-width="2" stroke-linecap="round" stroke-linejoin="round"/>
<path d="M7.5 7.5L22.5 22.5" stroke="#FF3C76" stroke-width="2" stroke-linecap="round" stroke-linejoin="round"/>
</svg>
