<svg width="21" height="19" viewBox="0 0 21 19" fill="none" xmlns="http://www.w3.org/2000/svg">
<path d="M11.6667 6.33334C12.1497 6.70205 12.5417 7.18015 12.8117 7.72979C13.0817 8.27943 13.2222 8.8855 13.2222 9.50001C13.2222 10.1145 13.0817 10.7206 12.8117 11.2702C12.5417 11.8199 12.1497 12.298 11.6667 12.6667" stroke="white" stroke-width="2" stroke-linecap="round" stroke-linejoin="round"/>
<path d="M13.7667 3.95834C14.5786 4.62623 15.2336 5.47053 15.6835 6.42939C16.1334 7.38825 16.3669 8.4374 16.3669 9.50001C16.3669 10.5626 16.1334 11.6118 15.6835 12.5706C15.2336 13.5295 14.5786 14.3738 13.7667 15.0417" stroke="white" stroke-width="2" stroke-linecap="round" stroke-linejoin="round"/>
<path d="M4.66666 11.875H3.11111C2.90483 11.875 2.707 11.7916 2.56113 11.6431C2.41527 11.4946 2.33333 11.2933 2.33333 11.0833V7.91666C2.33333 7.70669 2.41527 7.50533 2.56113 7.35686C2.707 7.2084 2.90483 7.12499 3.11111 7.12499H4.66666L7.38888 3.56249C7.45686 3.42809 7.56983 3.32287 7.70738 3.26584C7.84492 3.20882 7.99796 3.20375 8.13886 3.25156C8.27975 3.29936 8.3992 3.39688 8.47562 3.5265C8.55204 3.65612 8.58039 3.80928 8.55555 3.95832V15.0417C8.58039 15.1907 8.55204 15.3439 8.47562 15.4735C8.3992 15.6031 8.27975 15.7006 8.13886 15.7484C7.99796 15.7962 7.84492 15.7912 7.70738 15.7341C7.56983 15.6771 7.45686 15.5719 7.38888 15.4375L4.66666 11.875Z" stroke="white" stroke-width="2" stroke-linecap="round" stroke-linejoin="round"/>
<g clip-path="url(#clip0_2571_43846)">
<path d="M16.5278 5.14581L7.58334 13.8541" stroke="#2C3E50" stroke-width="2" stroke-linecap="round" stroke-linejoin="round"/>
<path d="M7.58334 5.14581L16.5278 13.8541" stroke="#2C3E50" stroke-width="2" stroke-linecap="round" stroke-linejoin="round"/>
</g>
<defs>
<clipPath id="clip0_2571_43846">
<rect width="17.8889" height="17.4167" fill="white" transform="translate(3.11111 0.791656)"/>
</clipPath>
</defs>
</svg>
