<svg width="30" height="29" viewBox="0 0 30 29" fill="none" xmlns="http://www.w3.org/2000/svg">
<path fill-rule="evenodd" clip-rule="evenodd" d="M13.0363 1.11488C13.7699 -0.371623 15.8896 -0.371629 16.6233 1.11488L20.1227 8.2057L27.9442 9.33925C29.5857 9.57715 30.241 11.5948 29.0524 12.7517L23.3834 18.27L24.7199 26.0613C25.0003 27.696 23.2836 28.942 21.8163 28.1688L14.8398 24.4925L7.84121 28.1721C6.37393 28.9435 4.659 27.6975 4.93928 26.0637L6.27621 18.27L0.607164 12.7517C-0.581388 11.5948 0.0738254 9.57715 1.71533 9.33925L9.53682 8.2057L13.0363 1.11488ZM18.3293 9.09083L14.8298 2L11.3303 9.09083C11.0389 9.68135 10.4754 10.0906 9.82368 10.185L2.00219 11.3186L7.67124 16.8368C8.1433 17.2963 8.3588 17.9588 8.24742 18.6081L6.91048 26.4018L13.909 22.7223C14.4923 22.4156 15.1892 22.4159 15.7721 22.7231L22.7487 26.3995L21.4121 18.6081C21.3008 17.9588 21.5163 17.2963 21.9883 16.8368L27.6574 11.3186L19.8359 10.185C19.1842 10.0906 18.6207 9.68135 18.3293 9.09083Z" fill="#858585"/>
</svg>
