<?xml version="1.0" standalone="no"?>
<!DOCTYPE svg PUBLIC "-//W3C//DTD SVG 1.1//EN" "http://www.w3.org/Graphics/SVG/1.1/DTD/svg11.dtd" >
<svg xmlns="http://www.w3.org/2000/svg">
<metadata>Generated by IcoMoon</metadata>
<defs>
<font id="icomoon" horiz-adv-x="1024">
<font-face units-per-em="1024" ascent="960" descent="-64" />
<missing-glyph horiz-adv-x="1024" />
<glyph unicode="&#x20;" horiz-adv-x="512" d="" />
<glyph unicode="&#xe900;" glyph-name="dots-horizontal" horiz-adv-x="4608" d="M0 448c0 282.77 229.23 512 512 512s512-229.23 512-512c0-282.77-229.23-512-512-512s-512 229.23-512 512zM1792.003 448c0 282.77 229.23 512 512 512 282.775 0 511.997-229.23 511.997-512s-229.222-512-511.997-512c-282.77 0-512 229.23-512 512zM3584 448c0 282.77 229.222 512 512 512s512-229.23 512-512c0-282.77-229.222-512-512-512s-512 229.23-512 512z" />
<glyph unicode="&#xe901;" glyph-name="dots-vertical" horiz-adv-x="228" d="M0 846.222c0 62.838 50.94 113.778 113.778 113.778s113.778-50.94 113.778-113.778c0-62.838-50.94-113.778-113.778-113.778s-113.778 50.94-113.778 113.778zM0 448.001c0 62.838 50.94 113.778 113.778 113.778s113.778-50.94 113.778-113.778c0-62.84-50.94-113.778-113.778-113.778s-113.778 50.938-113.778 113.778zM0 49.778c0 62.839 50.94 113.778 113.778 113.778s113.778-50.938 113.778-113.778c0-62.839-50.94-113.778-113.778-113.778s-113.778 50.938-113.778 113.778z" />
<glyph unicode="&#xe902;" glyph-name="circle-warning" d="M563.2 652.8c0 28.277-22.922 51.2-51.2 51.2-28.277 0-51.2-22.923-51.2-51.2h102.4zM460.8 448c0-28.278 22.923-51.2 51.2-51.2s51.2 22.922 51.2 51.2h-102.4zM512 294.4c-28.277 0-51.2-22.922-51.2-51.2s22.923-51.2 51.2-51.2v102.4zM512.512 192c28.278 0 51.2 22.922 51.2 51.2s-22.922 51.2-51.2 51.2v-102.4zM921.6 448c0-226.217-183.383-409.6-409.6-409.6v-102.4c282.767 0 512 229.233 512 512h-102.4zM512 38.4c-226.216 0-409.6 183.383-409.6 409.6h-102.4c0-282.767 229.23-512 512-512v102.4zM102.4 448c0 226.216 183.384 409.6 409.6 409.6v102.4c-282.77 0-512-229.23-512-512h102.4zM512 857.6c226.217 0 409.6-183.384 409.6-409.6h102.4c0 282.77-229.233 512-512 512v-102.4zM460.8 652.8v-204.8h102.4v204.8h-102.4zM512 192h0.512v102.4h-0.512v-102.4z" />
<glyph unicode="&#xe903;" glyph-name="circle-more" d="M358.4 499.2c-28.277 0-51.2-22.923-51.2-51.2 0-28.278 22.923-51.2 51.2-51.2v102.4zM665.6 396.8c28.278 0 51.2 22.922 51.2 51.2 0 28.277-22.922 51.2-51.2 51.2v-102.4zM563.2 601.6c0 28.277-22.922 51.2-51.2 51.2-28.277 0-51.2-22.923-51.2-51.2h102.4zM460.8 294.4c0-28.278 22.923-51.2 51.2-51.2s51.2 22.922 51.2 51.2h-102.4zM921.6 448c0-226.217-183.383-409.6-409.6-409.6v-102.4c282.767 0 512 229.233 512 512h-102.4zM512 38.4c-226.216 0-409.6 183.383-409.6 409.6h-102.4c0-282.767 229.23-512 512-512v102.4zM102.4 448c0 226.216 183.384 409.6 409.6 409.6v102.4c-282.77 0-512-229.23-512-512h102.4zM512 857.6c226.217 0 409.6-183.384 409.6-409.6h102.4c0 282.77-229.233 512-512 512v-102.4zM358.4 396.8h307.2v102.4h-307.2v-102.4zM460.8 601.6v-307.2h102.4v307.2h-102.4z" />
<glyph unicode="&#xe904;" glyph-name="phone-message" horiz-adv-x="922" d="M307.2 908.8c0 28.277 22.923 51.2 51.2 51.2h512c28.278 0 51.2-22.923 51.2-51.2v-409.6c0-28.277-22.922-51.2-51.2-51.2h-141.512l-193.992-96.993c-15.872-7.936-34.719-7.091-49.814 2.237-15.095 9.334-24.283 25.81-24.283 43.556v51.2h-102.4c-28.277 0-51.2 22.923-51.2 51.2v409.6zM563.2 479.643l130.703 65.352c7.107 3.554 14.95 5.405 22.897 5.405h102.4v307.2h-409.6v-307.2h102.4c28.278 0 51.2-22.923 51.2-51.2v-19.557zM29.992 827.608c19.204 19.204 45.25 29.992 72.408 29.992h102.4c28.277 0 51.2-22.923 51.2-51.2s-22.923-51.2-51.2-51.2h-102.4v-716.8h409.6v204.8c0 28.278 22.922 51.2 51.2 51.2s51.2-22.922 51.2-51.2v-204.8c0-27.156-10.788-53.202-29.993-72.407s-45.251-29.993-72.407-29.993h-409.6c-27.158 0-53.204 10.788-72.408 29.993s-29.992 45.251-29.992 72.407v716.8c0 27.158 10.789 53.204 29.992 72.408zM307.2 192c28.277 0 51.2-22.922 51.2-51.2v-0.512c0-28.278-22.923-51.2-51.2-51.2s-51.2 22.922-51.2 51.2v0.512c0 28.278 22.923 51.2 51.2 51.2z" />
<glyph unicode="&#xe905;" glyph-name="users" d="M358.4 857.6c-84.831 0-153.6-68.769-153.6-153.6s68.769-153.6 153.6-153.6c84.831 0 153.6 68.769 153.6 153.6s-68.769 153.6-153.6 153.6zM102.4 704c0 141.385 114.615 256 256 256s256-114.615 256-256c0-141.385-114.615-256-256-256s-256 114.615-256 256zM667.197 914.844c7.014 27.393 34.908 43.914 62.3 36.9 55.071-14.099 103.875-46.125 138.732-91.028 34.852-44.903 53.77-100.129 53.77-156.972s-18.918-112.069-53.77-156.972c-34.857-44.903-83.661-76.929-138.732-91.028-27.392-7.014-55.286 9.507-62.3 36.9-7.009 27.394 9.508 55.286 36.905 62.3 33.039 8.46 62.321 27.675 83.236 54.617 20.91 26.942 32.261 60.078 32.261 94.183s-11.351 67.241-32.261 94.183c-20.915 26.941-50.196 46.157-83.236 54.617-27.397 7.014-43.914 34.906-36.905 62.3zM256 243.2c-40.737 0-79.806-16.184-108.612-44.989s-44.988-67.876-44.988-108.611v-102.4c0-28.278-22.923-51.2-51.2-51.2s-51.2 22.922-51.2 51.2v102.4c0 67.896 26.971 133.012 74.981 181.018 48.009 48.010 113.124 74.982 181.019 74.982h204.8c67.896 0 133.012-26.972 181.018-74.982 48.010-48.005 74.982-113.121 74.982-181.018v-102.4c0-28.278-22.922-51.2-51.2-51.2s-51.2 22.922-51.2 51.2v102.4c0 40.735-16.184 79.805-44.989 108.611s-67.873 44.989-108.611 44.989h-204.8zM769.623 299.52c7.071 27.377 34.995 43.843 62.377 36.777 54.707-14.126 103.209-45.957 137.938-90.527 34.729-44.564 53.734-99.374 54.062-155.878v-102.692c0-28.278-22.922-51.2-51.2-51.2s-51.2 22.922-51.2 51.2v102.246c-0.225 33.853-11.628 66.683-32.435 93.384-20.838 26.742-49.94 45.839-82.765 54.318-27.377 7.066-43.843 34.99-36.777 62.372z" />
<glyph unicode="&#xe906;" glyph-name="export" horiz-adv-x="970" d="M485.053 960c14.294 0 28.002-5.678 38.11-15.785l269.473-269.474c21.046-21.048 21.046-55.172 0-76.219s-55.172-21.047-76.218 0l-177.47 177.47v-516.624c0-29.766-24.13-53.895-53.895-53.895s-53.894 24.129-53.894 53.895v516.624l-177.469-177.47c-21.048-21.047-55.172-21.047-76.219 0s-21.047 55.172 0 76.219l269.474 269.474c10.107 10.107 23.816 15.785 38.11 15.785zM53.895 259.368c29.765 0 53.895-24.129 53.895-53.895v-107.789c0-14.293 5.678-28.004 15.785-38.109s23.816-15.786 38.11-15.786h646.737c14.293 0 28.004 5.681 38.109 15.786s15.786 23.816 15.786 38.109v107.789c0 29.766 24.129 53.895 53.895 53.895s53.895-24.129 53.895-53.895v-107.789c0-42.884-17.036-84.006-47.357-114.327s-71.448-47.357-114.327-47.357h-646.737c-42.881 0-84.006 17.036-114.328 47.357s-47.356 71.443-47.356 114.327v107.789c0 29.766 24.129 53.895 53.895 53.895z" />
<glyph unicode="&#xe907;" glyph-name="import" horiz-adv-x="970" d="M485.052 960c29.766 0 53.895-24.129 53.895-53.895v-516.624l177.47 177.471c21.046 21.047 55.172 21.047 76.218 0s21.046-55.172 0-76.219l-269.473-269.474c-21.048-21.046-55.172-21.046-76.219 0l-269.474 269.474c-21.047 21.048-21.047 55.172 0 76.219s55.172 21.047 76.219 0l177.469-177.471v516.624c0 29.765 24.129 53.895 53.894 53.895zM53.895 259.368c29.765 0 53.895-24.129 53.895-53.895v-107.789c0-14.293 5.678-28.004 15.785-38.109s23.816-15.786 38.11-15.786h646.737c14.293 0 28.004 5.681 38.109 15.786s15.786 23.816 15.786 38.109v107.789c0 29.766 24.129 53.895 53.895 53.895s53.895-24.129 53.895-53.895v-107.789c0-42.879-17.036-84.006-47.357-114.327s-71.448-47.357-114.327-47.357h-646.737c-42.881 0-84.006 17.036-114.328 47.357s-47.356 71.448-47.356 114.327v107.789c0 29.766 24.129 53.895 53.895 53.895z" />
<glyph unicode="&#xe908;" glyph-name="square-edit" d="M706.196 868.204c29.972 29.97 70.62 46.808 113.004 46.808s83.031-16.837 113.004-46.808c29.972-29.97 46.807-70.619 46.807-113.004s-16.835-83.033-46.807-113.004l-76.718-76.72c-0.026-0.027-0.056-0.054-0.082-0.080s-0.051-0.054-0.082-0.080l-358.318-358.32c-9.602-9.6-22.625-14.996-36.204-14.996h-153.6c-28.277 0-51.2 22.922-51.2 51.2v153.6c0 13.578 5.394 26.604 14.996 36.204l435.201 435.201zM665.6 682.792l-307.2-307.199v-81.193h81.192l307.201 307.201-81.193 81.192zM819.2 674.008l40.596 40.596c10.767 10.767 16.814 25.37 16.814 40.596s-6.047 29.83-16.814 40.596c-10.767 10.766-25.37 16.815-40.596 16.815s-29.829-6.049-40.596-16.815l-40.596-40.596 81.193-81.192zM44.988 659.011c28.806 28.806 67.874 44.988 108.612 44.988h153.6c28.277 0 51.2-22.923 51.2-51.2s-22.923-51.2-51.2-51.2h-153.6c-13.579 0-26.602-5.394-36.204-14.996s-14.996-22.625-14.996-36.204v-460.799c0-13.578 5.394-26.604 14.996-36.204s22.625-14.996 36.204-14.996h460.8c13.578 0 26.604 5.396 36.204 14.996s14.996 22.625 14.996 36.204v153.6c0 28.278 22.922 51.2 51.2 51.2s51.2-22.922 51.2-51.2v-153.6c0-40.74-16.184-79.805-44.989-108.611s-67.876-44.989-108.611-44.989h-460.8c-40.737 0-79.806 16.184-108.612 44.989s-44.988 67.871-44.988 108.611v460.799c0 40.737 16.183 79.806 44.988 108.612z" />
<glyph unicode="&#xe909;" glyph-name="plane-send" d="M1009.718 945.718c13.371-13.368 17.803-33.26 11.386-51.041l-316.952-877.712c-0.463-1.273-0.97-2.526-1.536-3.755-6.027-13.156-15.711-24.308-27.887-32.124-12.181-7.817-26.351-11.971-40.823-11.971s-28.643 4.155-40.819 11.971c-11.888 7.631-21.397 18.437-27.453 31.183l-163.121 326.242-326.242 163.124c-12.748 6.055-23.552 15.561-31.182 27.451-7.816 12.18-11.972 26.348-11.972 40.821s4.155 28.641 11.972 40.821c7.817 12.18 18.965 21.86 32.122 27.889 1.229 0.563 2.481 1.075 3.752 1.535l877.716 316.952c17.779 6.421 37.673 1.985 51.039-11.383zM498.191 365.227l132.408-264.811 224.514 621.739-356.923-356.928zM786.154 791.114l-621.74-224.517 264.816-132.406 356.924 356.923z" />
<glyph unicode="&#xe90a;" glyph-name="chevron-down" horiz-adv-x="1902" d="M115.989 917.154c57.129 57.128 149.751 57.128 206.88 0l627.988-627.99 627.99 627.99c57.125 57.128 149.753 57.128 206.877 0s57.125-149.751 0-206.88l-731.427-731.429c-57.129-57.127-149.751-57.127-206.88 0l-731.428 731.429c-57.128 57.129-57.128 149.752 0 206.88z" />
<glyph unicode="&#xe90b;" glyph-name="user-add" horiz-adv-x="1075" d="M358.4 857.6c-84.831 0-153.6-68.769-153.6-153.6s68.769-153.6 153.6-153.6c84.831 0 153.6 68.769 153.6 153.6s-68.769 153.6-153.6 153.6zM102.4 704c0 141.385 114.615 256 256 256s256-114.615 256-256c0-141.385-114.615-256-256-256s-256 114.615-256 256zM870.4 704c28.278 0 51.2-22.923 51.2-51.2v-102.4h102.4c28.278 0 51.2-22.923 51.2-51.2s-22.922-51.2-51.2-51.2h-102.4v-102.4c0-28.278-22.922-51.2-51.2-51.2s-51.2 22.922-51.2 51.2v102.4h-102.4c-28.278 0-51.2 22.923-51.2 51.2s22.922 51.2 51.2 51.2h102.4v102.4c0 28.277 22.922 51.2 51.2 51.2zM256 243.2c-40.737 0-79.806-16.184-108.612-44.989s-44.988-67.876-44.988-108.611v-102.4c0-28.278-22.923-51.2-51.2-51.2s-51.2 22.922-51.2 51.2v102.4c0 67.896 26.971 133.012 74.981 181.018 48.009 48.010 113.124 74.982 181.019 74.982h204.8c67.896 0 133.012-26.972 181.018-74.982 48.010-48.005 74.982-113.121 74.982-181.018v-102.4c0-28.278-22.922-51.2-51.2-51.2s-51.2 22.922-51.2 51.2v102.4c0 40.735-16.184 79.805-44.989 108.611s-67.873 44.989-108.611 44.989h-204.8z" />
<glyph unicode="&#xe90c;" glyph-name="cohete" d="M805.484 959.92c0.981 0.053 1.956 0.080 2.937 0.080 57.177 0 112.009-22.713 152.436-63.141 40.432-40.429 63.143-95.262 63.143-152.437 0-0.979-0.027-1.957-0.081-2.934-5.804-106.432-43.035-208.754-106.992-294.027-56.843-75.797-132.533-135.097-219.271-172.182-6.672-51.313-23.854-100.848-50.613-145.44-33.005-55.010-79.495-100.697-135.074-132.737-15.693-9.049-34.882-9.609-51.074-1.487-16.193 8.117-27.224 23.827-29.362 41.817-2.532 21.305-6.861 42.237-12.888 62.588-29.038-29.55-62.905-54.272-100.364-73.006-67.215-33.609-142.936-46.376-217.456-36.665-24.242 3.158-43.322 22.237-46.48 46.479-9.708 74.52 3.060 150.242 36.667 217.454 18.729 37.462 43.456 71.33 73.005 100.368-20.354 6.025-41.285 10.353-62.59 12.886-17.988 2.14-33.698 13.166-41.817 29.362-8.119 16.19-7.561 35.38 1.486 51.074 32.042 55.578 77.727 102.067 132.738 135.074 44.596 26.758 94.127 43.938 145.444 50.612 37.085 86.735 96.385 162.426 172.181 219.273 85.273 63.954 187.592 101.187 294.024 106.99zM270.491 303.891c-35.041-25.352-63.593-58.864-83.067-97.814-17.34-34.676-26.913-72.526-28.279-110.932 38.405 1.364 76.254 10.941 110.933 28.279 38.949 19.472 72.46 48.026 97.812 83.068-13.007 18.939-27.789 36.751-44.217 53.183-16.429 16.427-34.243 31.205-53.182 44.215zM809.785 852.202c-84.582-4.921-165.85-34.655-233.65-85.503-68.219-51.163-119.734-121.407-148.031-201.847-7.374-20.96-26.855-35.247-49.062-35.98-45.799-1.513-90.455-14.679-129.749-38.256-16.748-10.049-32.286-21.848-46.375-35.153 73.89-23.325 141.562-64.161 196.974-119.57 55.412-55.415 96.246-123.085 119.571-196.974 13.306 14.088 25.106 29.626 35.152 46.376 23.579 39.289 36.745 83.946 38.254 129.746 0.733 22.21 15.020 41.688 35.98 49.060 80.443 28.3 150.684 79.814 201.847 148.032 50.85 67.798 80.583 149.069 85.504 233.65-0.356 28.095-11.668 54.963-31.561 74.855s-46.759 31.208-74.854 31.562zM592.842 636.632c0 59.531 48.257 107.789 107.789 107.789s107.789-48.259 107.789-107.789c0-59.531-48.257-107.789-107.789-107.789s-107.789 48.259-107.789 107.789z" />
<glyph unicode="&#xe90d;" glyph-name="gear" d="M426.24 841.37v0zM597.76 841.37v0zM729.498 786.79l-26.639 43.725-0.015-0.010 26.655-43.715zM850.842 665.446v0zM905.37 533.76l-12.099-49.75 0.026-0.007 12.073 49.757zM905.37 362.24l12.058-49.761 0.015 0.005-12.073 49.756zM850.79 230.502v0zM729.446 109.158v0zM597.76 54.63v0zM426.24 54.63v0zM294.502 109.21l26.637-43.725 0.016 0.010-26.654 43.715zM173.158 230.554v0zM118.63 362.24l12.099 49.751-0.028 0.005-12.071-49.756zM118.63 533.76l-12.057 49.76-0.014-0.004 12.071-49.757zM173.21 665.498v0zM294.554 786.842l-26.625-43.733 0.026-0.015 26.599 43.748zM475.997 829.299c9.155 37.735 62.853 37.735 72.007 0l99.512 24.142c-34.468 142.079-236.565 142.079-271.033 0l99.513-24.142zM547.999 829.313c5.171-21.341 15.309-41.16 29.588-57.843l77.798 66.583c-3.799 4.434-6.492 9.701-7.864 15.373l-99.523-24.113zM577.587 771.47c14.275-16.682 32.292-29.758 52.577-38.163l39.194 94.602c-5.391 2.234-10.179 5.709-13.972 10.144l-77.798-66.583zM630.164 733.307c20.285-8.404 42.271-11.9 64.164-10.203l-7.916 102.094c-5.821-0.451-11.663 0.478-17.055 2.712l-39.194-94.602zM694.328 723.104c21.893 1.698 43.075 8.54 61.824 19.972l-53.309 87.43c-4.982-3.038-10.614-4.857-16.43-5.308l7.916-102.094zM756.137 743.065c33.162 20.205 71.199-17.773 50.97-50.994l87.47-53.25c76.027 124.885-66.877 267.745-191.718 191.694l53.279-87.451zM807.117 692.081c-11.418-18.741-18.248-39.91-19.942-61.788l102.093-7.903c0.451 5.815 2.268 11.442 5.299 16.422l-87.45 53.268zM787.174 630.292c-1.695-21.878 1.797-43.847 10.194-64.12l94.612 39.175c-2.232 5.389-3.164 11.228-2.714 17.042l-102.093 7.903zM797.368 566.172c8.397-20.274 21.453-38.281 38.118-52.558l66.621 77.764c-4.429 3.794-7.9 8.581-10.127 13.969l-94.612-39.175zM835.487 513.614c16.666-14.276 36.465-24.419 57.784-29.604l24.197 99.5c-5.668 1.378-10.931 4.074-15.36 7.868l-66.621-77.764zM893.297 484.003c37.74-9.155 37.74-62.853 0-72.007l24.146-99.512c142.075 34.468 142.075 236.565 0 271.033l-24.146-99.513zM893.312 412.001c-21.34-5.171-41.16-15.309-57.841-29.588l66.58-77.798c4.434 3.799 9.702 6.492 15.375 7.864l-24.115 99.523zM835.471 382.413c-16.686-14.275-29.757-32.292-38.164-52.577l94.602-39.194c2.232 5.391 5.709 10.179 10.143 13.972l-66.58 77.798zM797.307 329.836c-8.402-20.285-11.899-42.271-10.204-64.164l102.093 7.916c-0.451 5.821 0.481 11.663 2.714 17.055l-94.602 39.194zM787.103 265.672c1.7-21.893 8.54-43.075 19.973-61.824l87.429 53.309c-3.036 4.982-4.859 10.614-5.309 16.43l-102.093-7.916zM807.066 203.863c20.204-33.162-17.772-71.199-50.995-50.97l-53.248-87.47c124.882-76.027 267.745 66.877 191.693 191.718l-87.45-53.279zM756.081 152.883c-18.739 11.418-39.91 18.248-61.788 19.942l-7.9-102.093c5.811-0.451 11.438-2.268 16.42-5.299l53.268 87.45zM694.292 172.826c-21.878 1.695-43.848-1.797-64.123-10.194l39.178-94.612c5.386 2.232 11.228 3.164 17.044 2.714l7.9 102.093zM630.17 162.632c-20.27-8.397-38.277-21.453-52.557-38.118l77.768-66.621c3.794 4.429 8.576 7.9 13.967 10.127l-39.178 94.612zM577.613 124.513c-14.275-16.666-24.417-36.465-29.604-57.784l99.502-24.197c1.377 5.668 4.076 10.931 7.869 15.36l-77.768 66.621zM548.004 66.703c-9.155-37.74-62.853-37.74-72.007 0l-99.513-24.146c34.468-142.075 236.565-142.075 271.033 0l-99.512 24.146zM476 66.688c-5.171 21.34-15.308 41.16-29.585 57.841l-77.798-66.58c3.795-4.434 6.489-9.702 7.863-15.375l99.521 24.115zM446.415 124.529c-14.278 16.686-32.293 29.757-52.579 38.164l-39.194-94.602c5.392-2.232 10.18-5.709 13.975-10.143l77.798 66.58zM393.836 162.693c-20.286 8.402-42.27 11.899-64.163 10.204l7.916-102.093c5.818 0.451 11.662-0.481 17.053-2.714l39.194 94.602zM329.672 172.897c-21.893-1.7-43.075-8.54-61.823-19.973l53.307-87.429c4.983 3.036 10.613 4.859 16.432 5.309l-7.916 102.093zM267.865 152.934c-33.166-20.204-71.199 17.772-50.974 50.995l-87.466 53.248c-76.030-124.882 66.877-267.745 191.714-191.693l-53.275 87.45zM216.886 203.919c11.415 18.739 18.247 39.91 19.94 61.788l-102.094 7.9c-0.45-5.811-2.266-11.438-5.3-16.42l87.455-53.268zM236.826 265.708c1.694 21.878-1.799 43.848-10.194 64.123l-94.61-39.178c2.231-5.386 3.16-11.228 2.71-17.044l102.094-7.9zM226.632 329.83c-8.395 20.27-21.455 38.277-38.119 52.557l-66.622-77.768c4.429-3.794 7.9-8.576 10.131-13.967l94.61 39.178zM188.512 382.387c-16.664 14.275-36.462 24.417-57.783 29.604l-24.197-99.502c5.667-1.377 10.929-4.076 15.358-7.869l66.622 77.768zM130.701 411.996c-37.735 9.155-37.735 62.853 0 72.007l-24.142 99.513c-142.079-34.468-142.079-236.565 0-271.033l24.142 99.512zM130.687 484c21.341 5.171 41.16 15.308 57.843 29.585l-66.583 77.798c-4.434-3.795-9.701-6.489-15.373-7.863l24.113-99.521zM188.53 513.585c16.682 14.278 29.758 32.293 38.163 52.579l-94.602 39.194c-2.234-5.392-5.709-10.18-10.144-13.975l66.583-77.798zM226.693 566.164c8.404 20.286 11.9 42.27 10.203 64.163l-102.094-7.916c0.451-5.818-0.478-11.662-2.712-17.053l94.602-39.194zM236.896 630.328c-1.698 21.893-8.54 43.075-19.972 61.823l-87.43-53.307c3.038-4.983 4.857-10.613 5.308-16.432l102.094 7.916zM216.935 692.135c-20.205 33.166 17.773 71.199 50.994 50.974l53.25 87.466c-124.885 76.030-267.745-66.877-191.694-191.714l87.451 53.275zM267.955 743.093c80.793-49.122 185.715-5.61 208.035 86.178l-99.5 24.196c-5.942-24.436-33.73-36.015-55.337-22.878l-53.198-87.497zM614.4 448c0-56.556-45.844-102.4-102.4-102.4v-102.4c113.106 0 204.8 91.694 204.8 204.8h-102.4zM512 345.6c-56.554 0-102.4 45.844-102.4 102.4h-102.4c0-113.106 91.692-204.8 204.8-204.8v102.4zM409.6 448c0 56.554 45.846 102.4 102.4 102.4v102.4c-113.108 0-204.8-91.692-204.8-204.8h102.4zM512 550.4c56.556 0 102.4-45.846 102.4-102.4h102.4c0 113.108-91.694 204.8-204.8 204.8v-102.4z" />
<glyph unicode="&#xe90e;" glyph-name="circle-question" d="M512 857.6c-226.216 0-409.6-183.384-409.6-409.6s183.384-409.6 409.6-409.6c226.217 0 409.6 183.383 409.6 409.6s-183.383 409.6-409.6 409.6zM0 448c0 282.77 229.23 512 512 512 282.767 0 512-229.23 512-512 0-282.767-229.233-512-512-512-282.77 0-512 229.233-512 512zM433.908 737.541c25.569 12.652 53.727 19.196 82.255 19.117s56.648-6.779 82.15-19.573c25.498-12.794 47.677-31.332 64.794-54.155s28.703-49.307 33.848-77.368c5.14-28.061 3.697-56.933-4.214-84.342s-22.077-52.608-41.385-73.614c-19.302-21.002-43.223-37.238-69.868-47.427-0.435-0.169-0.865-0.328-1.306-0.481-5.233-1.838-9.728-5.33-12.805-9.948s-4.572-10.112-4.26-15.652c1.603-28.232-19.988-52.413-48.22-54.016-28.23-1.603-52.414 19.988-54.015 48.22-1.571 27.699 5.901 55.163 21.292 78.249 15.23 22.844 37.398 40.181 63.223 49.459 11.648 4.539 22.103 11.685 30.566 20.892 8.581 9.335 14.879 20.535 18.396 32.717 3.512 12.182 4.157 25.014 1.869 37.485-2.284 12.472-7.434 24.243-15.043 34.386s-17.464 18.383-28.8 24.069c-11.331 5.686-23.828 8.664-36.506 8.699-12.681 0.035-25.196-2.873-36.56-8.497s-21.268-13.807-28.932-23.908c-17.092-22.527-49.209-26.934-71.736-9.842s-26.934 49.208-9.842 71.736c17.243 22.727 39.527 41.142 65.096 53.794zM512 243.2c28.278 0 51.2-22.922 51.2-51.2v-0.512c0-28.278-22.922-51.2-51.2-51.2s-51.2 22.922-51.2 51.2v0.512c0 28.278 22.923 51.2 51.2 51.2z" />
<glyph unicode="&#xe90f;" glyph-name="circle-check" d="M512 857.6c-226.216 0-409.6-183.384-409.6-409.6s183.384-409.6 409.6-409.6c226.217 0 409.6 183.383 409.6 409.6s-183.383 409.6-409.6 409.6zM0 448c0 282.77 229.23 512 512 512 282.767 0 512-229.23 512-512 0-282.767-229.233-512-512-512-282.77 0-512 229.233-512 512zM701.804 586.604c19.994-19.995 19.994-52.413 0-72.408l-204.799-204.799c-19.995-19.994-52.413-19.994-72.408 0l-102.4 102.4c-19.995 19.994-19.995 52.412 0 72.407s52.413 19.995 72.408 0l66.196-66.196 168.596 168.596c19.994 19.995 52.413 19.995 72.407 0z" />
<glyph unicode="&#xe910;" glyph-name="chevron-right" horiz-adv-x="551" d="M23.071 877.852c30.761 30.761 80.635 30.761 111.397 0l393.846-393.846c30.761-30.762 30.761-80.635 0-111.397l-393.846-393.845c-30.762-30.759-80.636-30.759-111.397 0s-30.761 80.636 0 111.395l338.148 338.148-338.148 338.148c-30.761 30.762-30.761 80.635 0 111.397z" />
<glyph unicode="&#xe911;" glyph-name="upload" horiz-adv-x="1240" d="M670.030 796.49c-32.644 5.936-66.307 6.027-98.999 0.266-32.688-5.761-63.554-17.222-90.857-33.535-55.171-32.963-91.831-83.201-104.22-138.394-5.523-24.605-27.369-42.091-52.586-42.091-53.706 0-104.756-20.429-142.034-56.086-37.196-35.579-57.622-83.309-57.622-132.545 0-49.233 20.426-96.967 57.622-132.543 37.278-35.657 88.328-56.088 142.034-56.088 29.765 0 53.895-24.129 53.895-53.895s-24.13-53.895-53.895-53.895c-80.786 0-158.718 30.677-216.54 85.984-57.904 55.388-90.905 131.029-90.905 210.437s33.001 155.052 90.905 210.438c47.99 45.904 109.834 74.839 175.663 83.352 25.765 69.324 76.173 128.29 142.397 167.857 38.868 23.223 82.179 39.181 127.436 47.157 45.255 7.976 91.783 7.851 136.99-0.369s88.42-24.413 127.143-47.85c38.729-23.442 72.332-53.75 98.649-89.43 26.333-35.698 44.824-76.037 54.121-118.767 4.581-21.071 6.872-42.452 6.866-63.831 62.151-1.533 121.436-26.891 165.505-70.961 45.482-45.482 71.033-107.169 71.033-171.492s-25.551-126.011-71.033-171.493c-45.482-45.482-107.17-71.033-171.493-71.033h-53.895c-29.766 0-53.895 24.129-53.895 53.895s24.129 53.895 53.895 53.895h53.895c35.732 0 70.004 14.196 95.275 39.462 25.266 25.271 39.462 59.543 39.462 95.275s-14.196 70.004-39.462 95.273c-25.271 25.268-59.543 39.463-95.275 39.463h-53.895c-16.368 0-31.846 7.438-42.076 20.216s-14.093 29.512-10.509 45.482c6.144 27.38 6.236 55.526 0.275 82.933-5.966 27.422-17.942 53.841-35.538 77.698-17.613 23.874-40.54 44.75-67.719 61.2-27.185 16.454-57.969 28.078-90.613 34.014zM554.733 513.057c21.046 21.047 55.172 21.047 76.218 0l161.684-161.685c21.046-21.046 21.046-55.172 0-76.218s-55.172-21.046-76.218 0l-69.681 69.681v-354.94c0-29.766-24.129-53.895-53.895-53.895s-53.895 24.129-53.895 53.895v354.94l-69.681-69.681c-21.047-21.046-55.172-21.046-76.218 0s-21.047 55.172 0 76.218l161.685 161.685z" />
<glyph unicode="&#xe912;" glyph-name="trash" horiz-adv-x="922" d="M285.992 930.008c19.204 19.204 45.25 29.992 72.408 29.992h204.8c27.156 0 53.202-10.789 72.407-29.992s29.993-45.25 29.993-72.408v-102.4h153.001c0.358 0.004 0.722 0.004 1.085 0h50.714c28.278 0 51.2-22.923 51.2-51.2s-22.922-51.2-51.2-51.2h-4.091l-47.124-565.545c-0.609-39.89-16.722-78.013-44.974-106.266-28.805-28.805-67.871-44.989-108.611-44.989h-409.6c-40.737 0-79.806 16.184-108.612 44.989-28.253 28.252-44.362 66.376-44.97 106.266l-47.129 565.545h-4.089c-28.277 0-51.2 22.923-51.2 51.2s22.923 51.2 51.2 51.2h50.716c0.361 0.004 0.723 0.004 1.083 0h153.001v102.4c0 27.158 10.788 53.204 29.992 72.408zM158.044 652.8l46.579-558.95c0.118-1.413 0.177-2.831 0.177-4.25 0-13.578 5.394-26.604 14.996-36.204s22.625-14.996 36.204-14.996h409.6c13.578 0 26.604 5.396 36.204 14.996s14.996 22.625 14.996 36.204c0 1.418 0.061 2.836 0.179 4.25l46.577 558.95h-605.512zM563.2 755.2v102.4h-204.8v-102.4h204.8zM358.4 550.4c28.277 0 51.2-22.923 51.2-51.2v-307.2c0-28.278-22.923-51.2-51.2-51.2s-51.2 22.922-51.2 51.2v307.2c0 28.277 22.923 51.2 51.2 51.2zM563.2 550.4c28.278 0 51.2-22.923 51.2-51.2v-307.2c0-28.278-22.922-51.2-51.2-51.2s-51.2 22.922-51.2 51.2v307.2c0 28.277 22.922 51.2 51.2 51.2z" />
<glyph unicode="&#xe913;" glyph-name="square-check" d="M170.667 846.222c-31.419 0-56.889-25.47-56.889-56.889v-682.667c0-31.42 25.47-56.889 56.889-56.889h682.667c31.42 0 56.889 25.469 56.889 56.889v682.667c0 31.419-25.469 56.889-56.889 56.889h-682.667zM0 789.333c0 94.256 76.41 170.667 170.667 170.667h682.667c94.259 0 170.667-76.41 170.667-170.667v-682.667c0-94.259-76.407-170.667-170.667-170.667h-682.667c-94.256 0-170.667 76.407-170.667 170.667v682.667zM722.893 602.004c22.215-22.217 22.215-58.237 0-80.453l-227.555-227.555c-22.217-22.215-58.237-22.215-80.453 0l-113.778 113.777c-22.216 22.217-22.216 58.237 0 80.453s58.237 22.216 80.453 0l73.551-73.552 187.329 187.329c22.215 22.216 58.237 22.216 80.452 0z" />
<glyph unicode="&#xe914;" glyph-name="brujula" d="M512 857.6c-226.216 0-409.6-183.384-409.6-409.6s183.384-409.6 409.6-409.6c226.217 0 409.6 183.383 409.6 409.6s-183.383 409.6-409.6 409.6zM0 448c0 282.77 229.23 512 512 512 282.767 0 512-229.23 512-512 0-282.767-229.233-512-512-512-282.77 0-512 229.233-512 512zM753.004 689.004c13.711-13.713 18.504-33.997 12.37-52.395l-102.4-307.198c-5.1-15.288-17.096-27.284-32.384-32.384l-307.198-102.4c-18.398-6.134-38.682-1.341-52.395 12.37s-18.501 33.997-12.368 52.393l102.4 307.202c5.096 15.288 17.093 27.286 32.381 32.381l307.202 102.4c18.396 6.133 38.682 1.345 52.393-12.368zM450.077 509.923l-61.923-185.77 185.767 61.926 61.926 185.767-185.77-61.923z" />
<glyph unicode="&#xe915;" glyph-name="file" horiz-adv-x="1205" d="M180.706 839.529c-15.976 0-31.296-6.346-42.593-17.642s-17.642-26.617-17.642-42.593v-662.588c0-15.974 6.346-31.298 17.642-42.592s26.617-17.643 42.593-17.643h843.294c15.974 0 31.298 6.349 42.592 17.643s17.643 26.618 17.643 42.592v481.882c0 15.976-6.349 31.296-17.643 42.593s-26.618 17.642-42.592 17.642h-421.647c-15.976 0-31.296 6.346-42.593 17.643l-163.063 163.063h-215.991zM52.928 907.072c33.889 33.889 79.852 52.928 127.778 52.928h240.941c15.976 0 31.296-6.346 42.593-17.643l163.062-163.064h396.698c47.929 0 93.889-19.039 127.777-52.928s52.929-79.852 52.929-127.778v-481.882c0-47.929-19.040-93.889-52.929-127.777s-79.848-52.929-127.777-52.929h-843.294c-47.926 0-93.889 19.040-127.778 52.929s-52.928 79.848-52.928 127.777v662.588c0 47.926 19.039 93.889 52.928 127.779z" />
<glyph unicode="&#xe916;" glyph-name="bookmark" horiz-adv-x="683" d="M170.667 846.222c-15.088 0-29.558-5.993-40.227-16.662s-16.662-25.139-16.662-40.227v-695.967l198.286 118.972c18.016 10.809 40.523 10.809 58.539 0l198.286-118.972v695.967c0 15.088-5.994 29.558-16.662 40.227s-25.139 16.662-40.227 16.662h-341.333zM49.987 910.012c32.006 32.006 75.416 49.987 120.68 49.987h341.333c45.264 0 88.673-17.981 120.678-49.987s49.988-75.416 49.988-120.68v-796.444c0-20.497-11.025-39.407-28.86-49.505s-39.726-9.825-57.298 0.722l-255.175 153.105-255.175-153.105c-17.575-10.547-39.463-10.82-57.298-0.722s-28.86 29.008-28.86 49.505v796.444c0 45.264 17.981 88.673 49.987 120.68z" />
<glyph unicode="&#xe917;" glyph-name="eyes" horiz-adv-x="1408" d="M138.231 448c159.868-264.352 348.987-384 565.769-384s405.901 119.648 565.766 384c-159.866 264.353-348.986 384-565.766 384-216.782 0-405.901-119.647-565.769-384zM8.433 479.754c177.628 310.832 408.846 480.246 695.567 480.246s517.939-169.414 695.565-480.246c11.245-19.676 11.245-43.832 0-63.508-177.626-310.831-408.845-480.246-695.565-480.246s-517.939 169.414-695.567 480.246c-11.244 19.676-11.244 43.832 0 63.508zM704 576c-70.692 0-127.999-57.308-127.999-128s57.308-128 127.999-128c70.694 0 128 57.308 128 128s-57.306 128-128 128zM448.001 448c0 141.385 114.615 256 255.999 256 141.382 0 256-114.615 256-256 0-141.382-114.618-256-256-256-141.384 0-255.999 114.618-255.999 256z" />
<glyph unicode="&#xe918;" glyph-name="close" d="M21.423 938.577c28.564 28.564 74.875 28.564 103.44 0l387.137-387.138 387.138 387.138c28.562 28.564 74.876 28.564 103.439 0s28.562-74.875 0-103.44l-387.137-387.137 387.137-387.138c28.562-28.562 28.562-74.876 0-103.439s-74.876-28.562-103.439 0l-387.138 387.137-387.137-387.137c-28.564-28.562-74.876-28.562-103.44 0s-28.564 74.876 0 103.439l387.138 387.138-387.138 387.137c-28.564 28.564-28.564 74.876 0 103.44z" />
<glyph unicode="&#xe919;" glyph-name="chevron-left" horiz-adv-x="630" d="M587.391 897.544c30.761-30.762 30.761-80.635 0-111.397l-338.148-338.148 338.148-338.148c30.761-30.759 30.761-80.636 0-111.395s-80.635-30.759-111.397 0l-393.846 393.845c-30.761 30.762-30.761 80.635 0 111.397l393.846 393.846c30.762 30.761 80.635 30.761 111.397 0z" />
<glyph unicode="&#xe91a;" glyph-name="padlock" horiz-adv-x="819" d="M409.6 857.6c40.737 0 79.806-16.183 108.611-44.988s44.989-67.874 44.989-108.612v-153.6h-307.2v153.6c0 40.737 16.183 79.806 44.988 108.612s67.874 44.988 108.612 44.988zM665.6 550.4c84.833 0 153.6-68.769 153.6-153.6v-307.2c0-84.833-68.767-153.6-153.6-153.6h-512c-84.831 0-153.6 68.767-153.6 153.6v307.2c0 84.831 68.769 153.6 153.6 153.6v153.6c0 67.895 26.971 133.010 74.981 181.019s113.124 74.981 181.019 74.981c67.895 0 133.012-26.971 181.018-74.981 48.010-48.009 74.982-113.124 74.982-181.019v-153.6zM153.6 448c-28.277 0-51.2-22.922-51.2-51.2v-307.2c0-28.278 22.923-51.2 51.2-51.2h512c28.278 0 51.2 22.922 51.2 51.2v307.2c0 28.278-22.922 51.2-51.2 51.2h-512zM307.2 243.2c0-56.556 45.846-102.4 102.4-102.4s102.4 45.844 102.4 102.4c0 56.556-45.846 102.4-102.4 102.4s-102.4-45.844-102.4-102.4z" />
<glyph unicode="&#xe91b;" glyph-name="loader" d="M563.2 908.8c0 28.277-22.922 51.2-51.2 51.2s-51.2-22.923-51.2-51.2v-153.6c0-28.277 22.923-51.2 51.2-51.2s51.2 22.923 51.2 51.2v153.6zM875.884 739.476c19.994 19.995 19.994 52.413 0 72.408s-52.413 19.995-72.407 0l-110.080-110.080c-19.994-19.995-19.994-52.413 0-72.408s52.413-19.995 72.407 0l110.080 110.080zM768 448c0 28.277 22.922 51.2 51.2 51.2h153.6c28.278 0 51.2-22.923 51.2-51.2s-22.922-51.2-51.2-51.2h-153.6c-28.278 0-51.2 22.922-51.2 51.2zM765.804 266.604c-19.994 19.994-52.413 19.994-72.407 0s-19.994-52.413 0-72.407l110.080-110.080c19.994-19.994 52.413-19.994 72.407 0s19.994 52.413 0 72.407l-110.080 110.080zM512 192c28.278 0 51.2-22.922 51.2-51.2v-153.6c0-28.278-22.922-51.2-51.2-51.2s-51.2 22.922-51.2 51.2v153.6c0 28.278 22.923 51.2 51.2 51.2zM330.604 194.196c19.995 19.994 19.995 52.413 0 72.407s-52.413 19.994-72.408 0l-110.080-110.080c-19.995-19.994-19.995-52.413 0-72.407s52.413-19.994 72.408 0l110.080 110.080zM0 448c0 28.277 22.923 51.2 51.2 51.2h153.6c28.277 0 51.2-22.923 51.2-51.2s-22.923-51.2-51.2-51.2h-153.6c-28.277 0-51.2 22.922-51.2 51.2zM220.524 811.884c-19.995 19.995-52.413 19.995-72.408 0s-19.995-52.413 0-72.408l110.080-110.080c19.995-19.995 52.413-19.995 72.408 0s19.995 52.413 0 72.408l-110.080 110.080z" />
<glyph unicode="&#xe91c;" glyph-name="location" horiz-adv-x="878" d="M438.857 862.462c-67.508 0-133.501-20.018-189.633-57.524s-99.881-90.813-125.716-153.183c-25.835-62.369-32.596-130.999-19.427-197.212 13.169-66.209 45.674-127.025 93.406-174.763 0.001 0-0.002 0 0 0l206.932-206.882c9.143-9.138 21.539-14.268 34.462-14.268s25.32 5.13 34.462 14.268l206.88 206.877c0 0 0 0 0 0 47.733 47.738 80.243 108.559 93.408 174.768 13.171 66.212 6.412 134.842-19.427 197.212-25.834 62.369-69.583 115.677-125.713 153.183-56.135 37.506-122.124 57.524-189.635 57.524zM195.044 886.027c72.169 48.221 157.017 73.959 243.813 73.959s171.647-25.738 243.814-73.959c72.168-48.221 128.419-116.76 161.636-196.949s41.906-168.428 24.976-253.556c-16.93-85.129-58.724-163.328-120.101-224.705l-206.897-206.897c-27.429-27.404-64.632-42.813-103.404-42.813s-75.957 15.394-103.387 42.793l-206.959 206.911c-61.373 61.377-103.173 139.581-120.104 224.709s-8.239 173.366 24.977 253.556c33.216 80.189 89.466 148.728 161.635 196.949zM438.857 618.667c-53.861 0-97.524-43.663-97.524-97.524 0-53.862 43.663-97.524 97.524-97.524 53.862 0 97.524 43.661 97.524 97.524 0 53.861-43.661 97.524-97.524 97.524zM243.81 521.143c0 107.722 87.326 195.048 195.048 195.048 107.72 0 195.048-87.326 195.048-195.048 0-107.72-87.328-195.048-195.048-195.048-107.722 0-195.048 87.328-195.048 195.048z" />
<glyph unicode="&#xe91d;" glyph-name="circle-info" d="M512 857.6c-226.216 0-409.6-183.384-409.6-409.6s183.384-409.6 409.6-409.6c226.217 0 409.6 183.383 409.6 409.6s-183.383 409.6-409.6 409.6zM0 448c0 282.77 229.23 512 512 512 282.767 0 512-229.23 512-512 0-282.767-229.233-512-512-512-282.77 0-512 229.233-512 512zM460.8 652.8c0 28.277 22.923 51.2 51.2 51.2h0.512c28.278 0 51.2-22.923 51.2-51.2s-22.922-51.2-51.2-51.2h-0.512c-28.277 0-51.2 22.923-51.2 51.2zM409.6 448c0 28.277 22.923 51.2 51.2 51.2h51.2c28.278 0 51.2-22.923 51.2-51.2v-153.6c28.278 0 51.2-22.922 51.2-51.2s-22.922-51.2-51.2-51.2h-51.2c-28.277 0-51.2 22.922-51.2 51.2v153.6c-28.277 0-51.2 22.922-51.2 51.2z" />
<glyph unicode="&#xe91e;" glyph-name="square" d="M170.667 846.222c-31.419 0-56.889-25.47-56.889-56.889v-682.667c0-31.42 25.47-56.889 56.889-56.889h682.667c31.42 0 56.889 25.469 56.889 56.889v682.667c0 31.419-25.469 56.889-56.889 56.889h-682.667zM0 789.333c0 94.257 76.41 170.667 170.667 170.667h682.667c94.259 0 170.667-76.41 170.667-170.667v-682.667c0-94.254-76.407-170.667-170.667-170.667h-682.667c-94.256 0-170.667 76.413-170.667 170.667v682.667z" />
<glyph unicode="&#xe91f;" glyph-name="flag" horiz-adv-x="819" d="M102.4 783.452c36.163 28.955 81.269 44.927 128 44.927 53.607 0 105.077-21.019 143.36-58.544 57.424-56.287 134.629-87.815 215.040-87.815 44.595 0 88.202 9.697 128 27.937v-341.41c-36.163-28.954-81.27-44.928-128-44.928-53.606 0-105.077 21.018-143.36 58.542-57.424 56.289-134.629 87.817-215.040 87.817-44.595 0-88.204-9.697-128-27.939v341.412zM102.4 322.652c36.163 28.954 81.27 44.928 128 44.928 53.607 0 105.077-21.018 143.36-58.542 57.424-56.289 134.629-87.818 215.040-87.818s157.614 31.529 215.040 87.818c9.825 9.626 15.36 22.804 15.36 36.562v460.801c0 20.615-12.365 39.22-31.37 47.204s-40.945 3.791-55.67-10.64c-38.282-37.525-89.754-58.544-143.36-58.544s-105.077 21.019-143.36 58.544c-57.424 56.287-134.629 87.815-215.040 87.815s-157.615-31.527-215.040-87.815c-9.824-9.63-15.36-22.808-15.36-36.564v-460.765c0-0.026 0-0.051 0-0.082v-358.354c0-28.278 22.923-51.2 51.2-51.2s51.2 22.922 51.2 51.2v335.452z" />
<glyph unicode="&#xe920;" glyph-name="camera" horiz-adv-x="1138" d="M317.769 926.675c21.337 21.337 50.277 33.325 80.453 33.325h341.333c30.174 0 59.113-11.987 80.452-33.325s33.326-50.277 33.326-80.453c0-15.088 5.996-29.558 16.663-40.227s25.139-16.662 40.226-16.662h56.889c45.266 0 88.673-17.981 120.678-49.987s49.988-75.416 49.988-120.68v-512c0-45.266-17.983-88.673-49.988-120.678s-75.412-49.988-120.678-49.988h-796.444c-45.264 0-88.673 17.983-120.68 49.988s-49.987 75.412-49.987 120.678v512c0 45.264 17.981 88.673 49.987 120.68s75.416 49.987 120.68 49.987h56.889c15.088 0 29.558 5.993 40.227 16.662s16.662 25.139 16.662 40.227c0 30.176 11.987 59.115 33.325 80.453zM739.556 846.222h-341.333c0-45.264-17.981-88.673-49.987-120.68s-75.416-49.987-120.68-49.987h-56.889c-15.088 0-29.558-5.994-40.227-16.663s-16.662-25.139-16.662-40.226v-512c0-15.087 5.994-29.559 16.662-40.226s25.139-16.663 40.227-16.663h796.444c15.087 0 29.559 5.996 40.226 16.663s16.663 25.139 16.663 40.226v512c0 15.088-5.996 29.558-16.663 40.226s-25.139 16.663-40.226 16.663h-56.889c-45.261 0-88.673 17.981-120.678 49.987s-49.988 75.416-49.988 120.68zM568.889 504.889c-62.838 0-113.778-50.94-113.778-113.778 0-62.839 50.94-113.778 113.778-113.778s113.778 50.938 113.778 113.778c0 62.838-50.938 113.778-113.778 113.778zM341.333 391.111c0 125.675 101.88 227.556 227.556 227.556 125.673 0 227.556-101.88 227.556-227.556 0-125.673-101.882-227.556-227.556-227.556-125.676 0-227.556 101.882-227.556 227.556z" />
<glyph unicode="&#xe921;" glyph-name="eyes-close" horiz-adv-x="1126" d="M66.196 945.004c19.995 19.995 52.413 19.995 72.408 0l383.887-383.889c0.046-0.041 0.087-0.083 0.128-0.125 0.031-0.033 0.067-0.067 0.097-0.1l153.385-153.384c0.041-0.036 0.077-0.077 0.118-0.118 0.031-0.031 0.061-0.061 0.092-0.092l193.234-193.229c2.826-2.273 5.448-4.879 7.798-7.803l182.861-182.861c19.994-19.994 19.994-52.413 0-72.407s-52.413-19.994-72.407 0l-158.049 158.044c-81.987-46.92-171.044-70.641-266.547-70.641-229.377 0-414.351 135.532-556.453 384.195-8.996 15.744-8.995 35.072 0.003 50.814 60.308 105.506 128.262 190.803 204.558 254.077l-145.111 145.111c-19.995 19.995-19.995 52.413 0 72.408zM284.089 654.704c-61.592-49.311-119.624-117.68-173.5-206.709 127.894-211.482 279.187-307.195 452.612-307.195 67.855 0 131.267 14.551 190.879 43.914l-118.764 118.764c-0.189-0.087-0.384-0.174-0.573-0.261-19.103-8.535-38.446-8.822-54.047-8.817-45.394 0.015-88.921 18.063-121.007 50.171s-50.102 75.648-50.086 121.040c0.006 15.552 0.289 34.904 8.83 53.993 0.078 0.174 0.156 0.348 0.235 0.521l-134.579 134.579zM534.047 754.334c9.636 0.611 19.297 0.901 28.974 0.866l0.179-0.001c173.425 0 324.721-95.716 452.613-307.195-23.107-38.195-46.991-72.622-71.613-103.378l-410.153 409.707zM563.292 857.6c-50.452 0.17-100.68-6.786-149.188-20.662-17.444-4.99-30.944-18.839-35.487-36.404s0.548-36.222 13.385-49.045l518.862-518.298c9.851-9.841 23.281-15.242 37.202-14.966s27.131 6.211 36.582 16.435c48.707 52.7 93.614 115.528 135.004 187.93 8.996 15.744 8.996 35.071 0 50.814-142.080 248.633-327.025 384.161-556.36 384.197z" />
<glyph unicode="&#xe922;" glyph-name="circle-close" d="M445.804 586.604c-19.995 19.995-52.413 19.995-72.408 0s-19.995-52.413 0-72.408l66.196-66.196-66.196-66.196c-19.995-19.994-19.995-52.413 0-72.407s52.413-19.994 72.408 0l66.196 66.196 66.196-66.196c19.994-19.994 52.413-19.994 72.407 0s19.994 52.413 0 72.407l-66.196 66.196 66.196 66.196c19.994 19.995 19.994 52.413 0 72.408s-52.413 19.995-72.407 0l-66.196-66.196-66.196 66.196zM512 960c-282.77 0-512-229.23-512-512 0-282.767 229.23-512 512-512 282.767 0 512 229.233 512 512 0 282.77-229.233 512-512 512zM102.4 448c0 226.216 183.384 409.6 409.6 409.6s409.6-183.384 409.6-409.6c0-226.217-183.383-409.6-409.6-409.6s-409.6 183.383-409.6 409.6z" />
<glyph unicode="&#xe923;" glyph-name="chevron-up" horiz-adv-x="1664" d="M864 863.998c33.948 0 66.505-13.486 90.51-37.49l639.999-640c49.984-49.988 49.984-131.032 0-181.020s-131.034-49.987-181.018 0l-549.491 549.491-549.49-549.491c-49.988-49.987-131.032-49.987-181.020 0-49.987 49.988-49.987 131.032 0 181.020l640 640c24.005 24.004 56.562 37.49 90.51 37.49z" />
<glyph unicode="&#xe924;" glyph-name="check" horiz-adv-x="1451" d="M1425.673 935.006c33.323-33.325 33.323-87.355 0-120.68l-853.332-853.332c-33.325-33.323-87.355-33.323-120.68 0l-426.666 426.666c-33.325 33.325-33.325 87.355 0 120.68s87.355 33.324 120.68 0l366.327-366.327 792.994 792.994c33.323 33.325 87.356 33.325 120.678 0z" />
<glyph unicode="&#xe925;" glyph-name="search" d="M102.4 550.4c0 169.662 137.538 307.2 307.2 307.2s307.2-137.538 307.2-307.2c0-169.661-137.539-307.2-307.2-307.2s-307.2 137.539-307.2 307.2zM409.6 960c-226.216 0-409.6-183.384-409.6-409.6s183.384-409.6 409.6-409.6c94.654 0 181.811 32.108 251.167 86.021l275.83-275.825c19.994-19.994 52.413-19.994 72.407 0s19.994 52.413 0 72.407l-275.825 275.83c53.914 69.356 86.021 156.513 86.021 251.167 0 226.216-183.383 409.6-409.6 409.6z" />
<glyph unicode="&#xe926;" glyph-name="arrow-left" horiz-adv-x="1210" d="M0 468.326c0-18.991 8.23-37.981 22.792-51.907l417.857-417.164c15.195-14.559 31.656-21.523 50.014-21.523 39.889 0 69.013 28.486 69.013 67.1 0 20.257-7.601 37.348-20.894 50.008l-142.451 144.333-183.604 167.75 147.517-8.862h767.339c41.784 0 70.907 29.119 70.907 70.265 0 41.781-29.123 70.9-70.907 70.9h-767.339l-146.883-8.862 182.971 167.752 142.451 144.33c13.293 12.661 20.894 29.752 20.894 50.009 0 38.615-29.123 67.101-69.013 67.101-18.358 0-35.453-6.963-51.914-22.789l-415.958-415.899c-14.562-13.926-22.792-32.919-22.792-52.542z" />
<glyph unicode="&#xe927;" glyph-name="arrow-right" horiz-adv-x="1257" d="M1220.296 439.915c0 19.624-8.229 38.614-22.793 52.541l-415.958 415.898c-16.458 15.826-33.555 22.789-51.279 22.789-40.522 0-69.646-28.486-69.646-67.101 0-20.257 8.234-37.349 20.894-50.009l142.452-144.33 183.603-167.752-146.883 8.862h-767.337c-42.419 0-71.542-29.118-71.542-70.897 0-41.151 29.123-70.27 71.542-70.27h767.337l146.883 8.862-183.603-167.75-142.452-144.333c-12.66-12.66-20.894-29.752-20.894-50.008 0-38.614 29.123-67.1 69.646-67.1 17.725 0 34.821 6.963 50.013 21.523l417.224 417.164c14.564 13.926 22.793 32.922 22.793 51.912z" />
<glyph unicode="&#xe928;" glyph-name="profile" d="M801.633 737.631c-159.959 159.959-419.302 159.959-579.261-0.001-159.461-159.46-159.957-417.687-1.488-577.763 56.028 84.526 171.566 134.533 291.116 134.533 119.552 0 235.090-50.012 291.118-134.533 158.469 160.072 157.978 418.301-1.485 577.764zM721.72 96.046c-29.271 50.258-104.346 95.954-209.72 95.954-105.373 0-180.445-45.696-209.717-95.949 128.777-76.867 290.659-76.867 419.438-0.005zM149.965 810.038c199.949 199.948 524.129 199.949 724.076 0s199.946-524.127 0-724.073c-199.946-199.951-524.128-199.951-724.076 0-199.948 199.946-199.948 524.126 0 724.073v0zM439.591 622.808c39.99 39.989 104.824 39.99 144.816-0.001s39.992-104.825 0-144.814v-0.001c-39.992-39.992-104.826-39.992-144.816-0.001l-0.001 0.001c-39.989 39.988-39.989 104.824 0 144.814zM656.814 695.216c-79.98 79.978-209.651 79.979-289.631-0.001s-79.98-209.652 0.001-289.629c79.978-79.98 209.651-79.98 289.63 0 79.98 79.977 79.98 209.651 0 289.63z" />
<glyph unicode="&#xe929;" glyph-name="mail" horiz-adv-x="1280" d="M135.172 797.469c10.661 20.516 32.108 34.531 56.827 34.531h896.001c24.717 0 46.163-14.015 56.826-34.531l-504.826-336.551-504.827 336.551zM0.003 769.226c-0.013-0.701-0.014-1.402-0.004-2.102v-639.124c0-106.035 85.961-192 192-192h896.001c106.035 0 192 85.965 192 192v639.124c0.006 0.7 0.006 1.401-0.006 2.102-0.659 105.475-86.362 190.774-191.994 190.774h-896.001c-105.63 0-191.337-85.3-191.996-190.774zM1152 648.415v-520.415c0-35.347-28.653-64-64-64h-896.001c-35.347 0-64 28.653-64 64v520.415l476.499-317.667c21.498-14.332 49.505-14.332 71.002 0l476.499 317.667z" />
<glyph unicode="&#xe92a;" glyph-name="home" d="M486.669 959.987c-43.94 0-86.627-14.648-121.31-41.627l-0.008-0.006-287.467-223.549c-23.759-18.477-42.981-42.138-56.199-69.178-13.214-27.032-20.078-56.726-20.068-86.815v-388.042c0-42.879 17.035-84.006 47.356-114.327s71.447-47.357 114.328-47.357h646.737c42.879 0 84.006 17.036 114.327 47.357s47.357 71.448 47.357 114.327v388.042c0 60.976-28.149 118.556-76.32 155.99l-0.022 0.018-287.394 223.534c-34.681 26.983-77.373 41.633-121.318 41.633zM431.536 833.278c15.763 12.262 35.163 18.92 55.133 18.92s39.371-6.658 55.135-18.92v-0.004l287.448-223.573c21.881-17 34.681-43.164 34.681-70.889v-388.042c0-14.293-5.681-28.004-15.786-38.109s-23.816-15.786-38.109-15.786h-646.737c-14.293 0-28.002 5.681-38.109 15.786s-15.786 23.816-15.786 38.109v388.067c-0.006 13.673 3.112 27.167 9.117 39.451s14.738 23.033 25.531 31.427h0.001l287.482 223.562zM728.468 267.113c25.487 15.376 33.684 48.5 18.313 73.987-15.376 25.487-48.5 33.684-73.987 18.313-49.26-29.712-117.092-46.139-187.783-46.139-70.695 0-138.49 16.427-187.684 46.129-25.482 15.382-58.609 7.195-73.993-18.286s-7.198-58.605 18.284-73.992c69.806-42.14 158.036-61.639 243.393-61.639 85.362 0 173.609 19.499 243.457 61.629z" />
<glyph unicode="&#xe92b;" glyph-name="store" d="M107.805 931.697c8.673 17.346 26.402 28.303 45.795 28.303h716.8c19.395 0 37.12-10.957 45.793-28.303l102.4-204.8c3.558-7.109 5.407-14.949 5.407-22.897v-51.2c0-54.317-21.576-106.408-59.986-144.816-12.764-12.767-27.044-23.674-42.414-32.547v-437.038h51.2c28.278 0 51.2-22.922 51.2-51.2s-22.922-51.2-51.2-51.2h-921.6c-28.277 0-51.2 22.922-51.2 51.2s22.923 51.2 51.2 51.2h51.2v437.038c-15.37 8.873-29.649 19.78-42.416 32.547-38.407 38.408-59.984 90.499-59.984 144.816v51.2c0 7.948 1.851 15.788 5.405 22.897l102.4 204.8zM409.6 38.4h204.8v153.6c0 13.578-5.396 26.604-14.996 36.204s-22.625 14.996-36.204 14.996h-102.4c-13.579 0-26.602-5.396-36.204-14.996s-14.996-22.625-14.996-36.204v-153.6zM716.8 38.4h102.4v409.6c-54.318 0-106.409 21.577-144.814 59.984-3.036 3.034-5.965 6.154-8.786 9.353-2.821-3.199-5.75-6.319-8.786-9.353-38.405-38.407-90.496-59.984-144.814-59.984s-106.408 21.577-144.816 59.984c-3.048 3.048-5.884 6.287-8.523 9.65-2.902-3.303-5.918-6.522-9.046-9.65-38.408-38.407-90.499-59.984-144.816-59.984v-409.6h102.4v153.6c0 40.74 16.183 79.805 44.988 108.611s67.874 44.989 108.612 44.989h102.4c40.74 0 79.805-16.184 108.611-44.989s44.989-67.871 44.989-108.611v-153.6zM415.318 652.8c1.282-6.886 2.783-13.962 4.508-21.015 3.393-13.869 7.341-26.348 11.529-36.239 2.077-4.904 4.009-8.689 5.674-11.448 1.521-2.522 2.448-3.572 2.562-3.701l0.002-0.002c0.014-0.016 0.014-0.016 0.001-0.002 19.204-19.204 45.25-29.992 72.408-29.992 27.156 0 53.202 10.788 72.407 29.992s29.993 45.25 29.993 72.408h-199.082zM307.2 652.8h-204.8c0-27.158 10.788-53.204 29.992-72.408s45.25-29.992 72.408-29.992c27.158 0 53.204 10.788 72.408 29.992s29.992 45.25 29.992 72.408zM134.043 755.2h755.915l-51.2 102.4h-653.515l-51.2-102.4zM921.6 652.8h-204.8c0-27.158 10.788-53.204 29.993-72.408s45.251-29.992 72.407-29.992c27.156 0 53.202 10.788 72.407 29.992s29.993 45.25 29.993 72.408z" />
<glyph unicode="&#xe92c;" glyph-name="filtro" d="M625.778 846.222c31.42 0 56.889-25.47 56.889-56.889s-25.469-56.889-56.889-56.889c-31.42 0-56.889 25.47-56.889 56.889s25.469 56.889 56.889 56.889zM786.734 846.222c-23.427 66.286-86.647 113.778-160.956 113.778s-137.527-47.491-160.955-113.778h-407.934c-31.419 0-56.889-25.47-56.889-56.889s25.47-56.889 56.889-56.889h407.934c23.429-66.286 86.646-113.778 160.955-113.778 74.308 0 137.529 47.491 160.956 113.778h180.378c31.42 0 56.889 25.47 56.889 56.889s-25.469 56.889-56.889 56.889h-180.378zM284.444 504.889c-31.419 0-56.889-25.47-56.889-56.889s25.47-56.889 56.889-56.889c31.419 0 56.889 25.47 56.889 56.889s-25.47 56.889-56.889 56.889zM284.444 618.667c74.309 0 137.527-47.491 160.955-113.778h521.712c31.42 0 56.889-25.47 56.889-56.889s-25.469-56.889-56.889-56.889h-521.712c-23.429-66.287-86.646-113.778-160.955-113.778s-137.527 47.491-160.955 113.778h-66.6c-31.419 0-56.889 25.47-56.889 56.889s25.47 56.889 56.889 56.889h66.6c23.429 66.286 86.646 113.778 160.955 113.778zM739.556 106.667c0 31.42 25.469 56.889 56.889 56.889s56.889-25.469 56.889-56.889c0-31.42-25.469-56.889-56.889-56.889s-56.889 25.469-56.889 56.889zM957.4 163.556c-23.427 66.287-86.647 113.778-160.956 113.778s-137.529-47.491-160.956-113.778h-578.6c-31.419 0-56.889-25.469-56.889-56.889s25.47-56.889 56.889-56.889h578.6c23.427-66.287 86.647-113.778 160.956-113.778s137.529 47.491 160.956 113.778h9.711c31.42 0 56.889 25.469 56.889 56.889s-25.469 56.889-56.889 56.889h-9.711z" />
<glyph unicode="&#xe92d;" glyph-name="bell" horiz-adv-x="922" d="M424.594 842.604c-9.413-9.413-14.782-22.113-14.99-35.402 0.151-9.998-2.647-19.814-7.944-28.197-3.847-6.088-9.013-11.421-15.326-15.519-2.221-1.449-4.561-2.73-7.003-3.825-49.988-23.847-92.605-60.768-123.334-106.861-30.71-46.066-48.397-99.568-51.2-154.847v-152.353c0-2.058-0.124-4.111-0.371-6.154-4.109-33.946-14.968-66.662-31.874-96.246h576.493c-16.906 29.583-27.766 62.3-31.877 96.246-0.246 2.043-0.369 4.096-0.369 6.154v152.353c-2.806 55.279-20.49 108.782-51.2 154.847-30.925 46.386-73.887 83.483-124.288 107.314-17.9 8.463-29.314 26.488-29.314 46.286 0 13.579-5.394 26.602-14.996 36.204s-22.625 14.996-36.204 14.996c-13.579 0-26.602-5.394-36.204-14.996zM255.998 140.8h-204.8c-23.253 0-43.586 15.667-49.51 38.154s4.047 46.141 24.281 57.6c20.926 11.848 38.777 28.447 52.116 48.456 12.809 19.21 21.114 41.057 24.313 63.903v150.287c0 0.8 0.019 1.601 0.056 2.401 3.485 74.25 27.11 146.152 68.342 208.001 35.864 53.795 83.872 98.22 139.985 129.786 6.25 28.423 20.505 54.725 41.405 75.624 28.806 28.806 67.874 44.988 108.612 44.988s79.807-16.183 108.612-44.988c20.9-20.9 35.154-47.202 41.405-75.624 56.11-31.566 104.12-75.991 139.986-129.786 41.231-61.848 64.855-133.75 68.342-208.001 0.036-0.8 0.056-1.601 0.056-2.401v-150.292c3.2-22.84 11.505-44.687 24.31-63.898 13.343-20.009 31.191-36.608 52.116-48.456 20.234-11.459 30.208-35.113 24.284-57.6s-26.26-38.154-49.51-38.154h-204.8c0-54.318-21.581-106.409-59.986-144.814-38.405-38.41-90.501-59.986-144.816-59.986-54.317 0-106.408 21.576-144.816 59.986-38.407 38.405-59.984 90.496-59.984 144.814zM563.2 140.8h-204.802c0-27.156 10.788-53.202 29.992-72.407s45.25-29.993 72.408-29.993c27.158 0 53.203 10.788 72.409 29.993s29.993 45.251 29.993 72.407z" />
<glyph unicode="&#xe92e;" glyph-name="message" horiz-adv-x="1132" d="M268.31 767.976c81.709 57.968 185.242 88.131 291.311 83.83 106.070-4.3 205.824-42.695 280.942-106.763 74.968-63.95 119.986-148.716 128.728-237.952v0c8.731-89.148-19.090-178.91-79.904-252.687-60.982-73.981-151.186-126.927-254.642-147.418v-0.005c-103.473-20.496-211.623-6.802-304.007 38.050-10.791 5.239-23.021 6.726-34.753 4.231l-161.173-34.293 40.276 120.832c5.298 15.894 2.903 33.35-6.482 47.228-52.73 77.991-71.318 169.385-53.467 257.575v0.001c17.884 88.355 71.576 169.485 153.172 227.373zM563.987 959.507c-128.781 5.222-256.006-31.227-358.046-103.619v0c-102.154-72.473-172.703-176.581-196.449-293.901-22.007-108.721-2.047-220.214 55.243-316.389l-61.968-185.905c-6.113-18.335-1.937-38.54 10.944-52.957 12.881-14.411 32.494-20.82 51.401-16.799l235.708 50.149c109.93-48.877 235.144-62.561 354.869-38.837 126.017 24.959 238.899 89.999 316.874 184.595 78.137 94.79 115.663 212.717 104.006 331.754-11.657 118.956-71.4 228.713-166.055 309.452v0.001c-94.526 80.622-217.74 127.233-346.527 132.455zM592.842 473.789c0 29.766-24.129 53.895-53.895 53.895-29.764 0-53.894-24.129-53.894-53.895v-0.539c0-29.765 24.129-53.895 53.894-53.895s53.895 24.13 53.895 53.895v0.539zM323.369 527.684c29.765 0 53.895-24.129 53.895-53.895v-0.539c0-29.765-24.13-53.895-53.895-53.895s-53.895 24.13-53.895 53.895v0.539c0 29.766 24.129 53.895 53.895 53.895zM808.421 473.789c0 29.766-24.129 53.895-53.895 53.895s-53.895-24.129-53.895-53.895v-0.539c0-29.765 24.129-53.895 53.895-53.895s53.895 24.13 53.895 53.895v0.539z" />
<glyph unicode="&#xe92f;" glyph-name="world" d="M512 851.702c35.517-62.707 62.479-129.607 80.369-198.909h-160.738c17.894 69.302 44.855 136.202 80.37 198.909zM611.958 550.393c4.265-33.851 6.426-68.048 6.426-102.398 0-34.355-2.161-68.552-6.426-102.4h-199.916c-4.265 33.848-6.425 68.045-6.425 102.4 0 34.35 2.16 68.548 6.425 102.398h199.916zM715.080 345.595c3.789 33.894 5.704 68.076 5.704 102.4 0 34.319-1.915 68.503-5.704 102.398h193.618c8.422-32.729 12.902-67.041 12.902-102.398 0-35.359-4.48-69.673-12.902-102.4h-193.618zM592.369 243.195c-17.889-69.304-44.851-136.202-80.369-198.912-35.515 62.71-62.476 129.608-80.37 198.912h160.738zM633.615 56.75c28.017 59.756 49.5 122.271 64.123 186.445h169.068c-51.041-88.238-134.052-155.663-233.19-186.445zM531.425-63.647c5.965-0.722 11.986-0.374 17.772 0.973 265.405 19.052 474.803 240.404 474.803 510.669 0 270.259-209.398 491.613-474.803 510.668-5.786 1.345-11.807 1.69-17.772 0.969-6.446 0.24-12.923 0.362-19.425 0.362s-12.979-0.121-19.423-0.362c-5.968 0.721-11.986 0.376-17.772-0.969-265.406-19.054-474.805-240.408-474.805-510.668 0-270.264 209.399-491.617 474.805-510.669 5.786-1.347 11.804-1.695 17.772-0.973 6.445-0.241 12.92-0.358 19.423-0.358s12.979 0.118 19.425 0.358zM633.615 839.236c99.139-30.782 182.149-98.209 233.19-186.443h-169.068c-14.623 64.172-36.106 126.686-64.123 186.443zM390.386 56.75c-99.14 30.781-182.149 98.207-233.189 186.445h169.064c14.627-64.174 36.107-126.689 64.125-186.445zM303.217 447.995c0-34.324 1.916-68.506 5.706-102.4h-193.619c-8.424 32.727-12.904 67.041-12.904 102.4 0 35.357 4.481 69.669 12.904 102.398h193.619c-3.79-33.895-5.706-68.079-5.706-102.398zM326.261 652.793h-169.063c51.040 88.233 134.049 155.661 233.188 186.444-28.018-59.757-49.498-122.271-64.125-186.444z" />
<glyph unicode="&#xe930;" glyph-name="exit" horiz-adv-x="1117" d="M178.424 928.977c-41.149 0-80.612-16.346-109.709-45.443s-45.443-68.56-45.443-109.709v-651.635c0-41.151 16.346-80.612 45.443-109.712 29.096-29.096 68.56-45.442 109.709-45.442h380.121c41.151 0 80.612 16.347 109.708 45.442 29.096 29.1 45.442 68.561 45.442 109.712v108.605c0 25.707-20.838 46.545-46.545 46.545s-46.545-20.838-46.545-46.545v-108.605c0-16.463-6.535-32.247-18.176-43.883-11.636-11.641-27.425-18.181-43.883-18.181h-380.121c-16.459 0-32.245 6.54-43.884 18.181-11.638 11.636-18.177 27.42-18.177 43.883v651.635c0 16.46 6.539 32.245 18.177 43.884s27.424 18.177 43.884 18.177h380.121c16.458 0 32.247-6.539 43.883-18.177 11.641-11.639 18.176-27.424 18.176-43.884v-108.606c0-25.706 20.838-46.545 46.545-46.545s46.545 20.839 46.545 46.545v108.606c0 41.149-16.347 80.612-45.442 109.709s-68.557 45.443-109.708 45.443h-380.121zM917.281 643.822c-18.176 18.177-47.649 18.177-65.825 0s-18.176-47.648 0-65.826l83.451-83.451h-647.873c-25.707 0-46.545-20.838-46.545-46.545s20.839-46.545 46.545-46.545h647.873l-83.451-83.451c-18.176-18.176-18.176-47.649 0-65.825s47.649-18.176 65.825 0l162.909 162.909c8.727 8.727 13.633 20.568 13.633 32.912s-4.906 24.185-13.633 32.912l-162.909 162.91z" />
<glyph unicode="&#xe931;" glyph-name="sms" d="M213.333 860.444c-33.948 0-66.505-13.486-90.51-37.49s-37.49-56.562-37.49-90.51v-636.547l154.719 154.715c8.001 8.004 18.854 12.498 30.17 12.498h512c33.946 0 66.503 13.488 90.51 37.49 24.001 24.007 37.49 56.565 37.49 90.51v341.333c0 33.948-13.488 66.505-37.49 90.51-24.007 24.005-56.565 37.49-90.51 37.49h-568.889zM62.484 883.294c40.008 40.008 94.27 62.484 150.849 62.484h568.889c56.582 0 110.842-22.476 150.847-62.484 40.010-40.008 62.487-94.27 62.487-150.849v-341.333c0-56.582-22.477-110.842-62.487-150.852-40.004-40.004-94.265-62.481-150.847-62.481h-494.327l-215.059-215.057c-12.203-12.203-30.554-15.855-46.498-9.25s-26.339 22.164-26.339 39.418v739.556c0 56.579 22.476 110.842 62.484 150.849zM227.556 675.556c0 23.564 19.103 42.667 42.667 42.667h455.111c23.563 0 42.667-19.103 42.667-42.667s-19.103-42.667-42.667-42.667h-455.111c-23.564 0-42.667 19.103-42.667 42.667zM227.556 448c0 23.564 19.103 42.667 42.667 42.667h341.333c23.563 0 42.667-19.103 42.667-42.667s-19.103-42.667-42.667-42.667h-341.333c-23.564 0-42.667 19.103-42.667 42.667z" />
<glyph unicode="&#xe932;" glyph-name="calendar" horiz-adv-x="904" d="M250.983 960c24.95 0 45.176-20.226 45.176-45.176v-55.216h311.217v55.216c0 24.95 20.227 45.176 45.176 45.176s45.176-20.226 45.176-45.176v-55.216h55.212c80.396 0 145.571-65.173 145.571-145.568v-602.351c0-80.396-65.175-145.571-145.571-145.571h-602.351c-80.395 0-145.569 65.175-145.569 145.571v602.351c0 80.395 65.173 145.568 145.569 145.568h55.216v55.216c0 24.95 20.226 45.176 45.176 45.176zM205.807 769.255h-55.216c-30.495 0-55.216-24.721-55.216-55.215v-155.608h712.784v155.608c0 30.495-24.721 55.215-55.218 55.215h-55.212v-55.215c0-24.951-20.227-45.176-45.176-45.176s-45.176 20.226-45.176 45.176v55.215h-311.217v-55.215c0-24.951-20.226-45.176-45.176-45.176s-45.176 20.226-45.176 45.176v55.215zM808.159 468.078h-712.784v-356.39c0-30.497 24.721-55.218 55.216-55.218h602.351c30.497 0 55.218 24.721 55.218 55.218v356.39zM205.807 312.471c0 24.949 20.226 45.176 45.176 45.176h100.392c24.951 0 45.176-20.227 45.176-45.176v-100.394c0-24.949-20.226-45.176-45.176-45.176h-100.392c-24.951 0-45.176 20.227-45.176 45.176v100.394zM296.159 267.294v-10.041h10.039v10.041h-10.039z" />
<glyph unicode="&#xe933;" glyph-name="clock" d="M501.963 869.647c-224.552 0-406.588-182.036-406.588-406.588 0-224.551 182.036-406.588 406.588-406.588s406.59 182.037 406.59 406.588c0 224.552-182.037 406.588-406.59 406.588zM5.022 463.059c0 274.453 222.488 496.941 496.941 496.941s496.943-222.488 496.943-496.941c0-274.45-222.491-496.941-496.943-496.941s-496.941 222.491-496.941 496.941zM501.963 759.216c24.951 0 45.176-20.226 45.176-45.176v-232.268l137.356-137.358c17.643-17.643 17.643-46.243 0-63.886s-46.249-17.643-63.892 0l-150.586 150.586c-8.472 8.472-13.232 19.963-13.232 31.945v250.981c0 24.95 20.226 45.176 45.176 45.176z" />
<glyph unicode="&#xe934;" glyph-name="alert" d="M433.455 940.491c23.641 13.939 50.586 21.291 78.032 21.291s54.391-7.352 78.032-21.291c23.483-13.844 42.857-33.683 56.137-57.481l363.4-626.998c1.204-2.079 2.264-4.241 3.165-6.474 9.404-23.237 12.972-48.424 10.407-73.362-2.571-24.936-11.201-48.864-25.142-69.699-13.941-20.84-32.768-37.946-54.836-49.833s-46.713-18.196-71.784-18.372h-717.377c-0.936 0-1.867 0.025-2.79 0.072-1.805-0.097-3.635-0.097-5.481-0.005-24.475 1.26-48.296 8.363-69.469 20.706s-39.088 29.572-52.246 50.247c-13.158 20.676-21.179 44.205-23.393 68.608-2.213 24.409 1.443 48.993 10.666 71.701 0.897 2.207 1.945 4.348 3.139 6.408l363.401 626.997c13.28 23.797 32.654 43.637 56.136 57.482zM150.661 140.63c0.936 0.052 1.88 0.077 2.829 0.077h716.808c8.308 0.082 16.465 2.182 23.779 6.121 7.355 3.964 13.634 9.664 18.279 16.609s7.524 14.924 8.379 23.237c0.753 7.319-0.077 14.698-2.427 21.644l-362.007 624.613c-4.431 8.005-10.92 14.678-18.801 19.325s-16.865 7.097-26.012 7.097c-9.147 0-18.13-2.451-26.012-7.097-7.877-4.647-14.371-11.319-18.801-19.325l-0.502-0.887-361.527-623.762c-2.305-6.776-3.168-13.971-2.52-21.122 0.738-8.138 3.411-15.979 7.798-22.868 4.386-6.894 10.357-12.64 17.415-16.752s14.997-6.478 23.156-6.899c0.056-0.005 0.112-0.011 0.168-0.011zM512 652.862c28.287 0 51.216-22.929 51.216-51.216v-102.43c0-28.287-22.929-51.216-51.216-51.216s-51.216 22.929-51.216 51.216v102.43c0 28.285 22.929 51.216 51.216 51.216zM512 345.569c28.287 0 51.216-22.929 51.216-51.216v-0.513c0-28.287-22.929-51.216-51.216-51.216s-51.216 22.929-51.216 51.216v0.513c0 28.287 22.929 51.216 51.216 51.216z" />
<glyph unicode="&#xe935;" glyph-name="filter" d="M83.895 945.84c6.666 2.337 13.678 3.531 20.742 3.531h814.729c7.064 0 14.076-1.194 20.737-3.531 18.055-6.331 34.42-16.71 47.836-30.341 13.424-13.631 23.546-30.154 29.593-48.302s7.866-37.44 5.308-56.397c-2.557-18.959-9.426-37.078-20.068-52.974-1.717-2.568-3.622-5.004-5.704-7.29l-297.057-326.764v-414.471c0-23.74-13.412-45.436-34.645-56.053s-46.641-8.328-65.63 5.917l-250.686 188.014c-15.781 11.839-25.069 30.408-25.069 50.137v226.457l-297.058 326.764c-2.078 2.286-3.985 4.722-5.704 7.29-10.643 15.896-17.506 34.016-20.065 52.974s-0.743 38.249 5.307 56.397c6.049 18.148 16.172 34.671 29.593 48.302s29.784 24.010 47.836 30.341zM129.51 824.028l303.518-333.869c10.491-11.538 16.301-26.566 16.301-42.159v-219.349l125.342-94.007v313.357c0 15.592 5.809 30.621 16.294 42.159l303.524 333.869h-764.98z" />
<glyph unicode="&#xe936;" glyph-name="phone" horiz-adv-x="977" d="M132.791 890.182c-22.874 0-44.811-9.087-60.985-25.261-16.016-16.017-25.083-37.684-25.258-60.316 12.8-207.652 101.063-403.476 248.186-550.597 147.123-147.126 342.948-235.385 550.596-248.185 22.635 0.172 44.302 9.239 60.318 25.256 16.175 16.175 25.26 38.111 25.26 60.984v203.283l-240.766 96.307-71.941-119.906c-6.232-10.384-19.386-14.252-30.25-8.895-123.507 60.909-223.465 160.866-284.376 284.373-5.357 10.863-1.487 24.019 8.899 30.25l119.903 71.942-96.306 240.765h-203.281zM38.894 897.833c24.903 24.903 58.679 38.894 93.898 38.894h219.037c9.517 0 18.074-5.794 21.608-14.629l109.519-273.797c4.24-10.605 0.158-22.723-9.635-28.599l-118.179-70.907c53.616-99.291 135.089-180.764 234.38-234.38l70.907 118.179c5.879 9.793 17.994 13.875 28.598 9.635l273.799-109.517c8.834-3.537 14.629-12.093 14.629-21.611v-219.038c0-35.216-13.992-68.994-38.893-93.896s-58.68-38.893-93.896-38.893c-0.475 0-0.945 0.014-1.415 0.042-219.276 13.326-426.092 106.44-581.429 261.781-155.338 155.336-248.453 362.153-261.779 581.429-0.029 0.47-0.043 0.941-0.043 1.412 0 35.219 13.99 68.994 38.894 93.898z" />
<glyph unicode="&#xe937;" glyph-name="start" horiz-adv-x="1040" d="M459.546 925.894c26.192 53.073 101.873 53.073 128.068 0l124.941-253.166 279.254-40.472c58.607-8.494 82.004-80.531 39.567-121.836l-202.402-197.022 47.717-278.176c10.011-58.365-51.281-102.851-103.668-75.245l-249.085 131.256-249.874-131.374c-52.387-27.541-113.616 16.945-103.609 75.277l47.733 278.262-202.404 197.022c-42.435 41.306-19.042 113.342 39.566 121.836l279.254 40.472 124.944 253.166zM648.524 641.126l-124.945 253.167-124.945-253.167c-10.404-21.083-30.523-35.695-53.791-39.066l-279.254-40.474 202.404-197.019c16.855-16.406 24.548-40.059 20.571-63.241l-47.734-278.262 249.871 131.37c20.826 10.951 45.707 10.939 66.519-0.028l249.088-131.26-47.721 278.18c-3.974 23.182 3.72 46.836 20.572 63.241l202.406 197.019-279.254 40.474c-23.268 3.37-43.387 17.982-53.791 39.066z" />
</font>
</defs>
</svg>
